<?xml version="1.0" encoding="UTF-8" standalone="no"?><svg xmlns="http://www.w3.org/2000/svg" xmlns:xlink="http://www.w3.org/1999/xlink" contentStyleType="text/css" height="1775px" preserveAspectRatio="none" style="width:677px;height:1775px;background:#FFFFFF;" version="1.1" viewBox="0 0 677 1775" width="677px" zoomAndPan="magnify"><defs/><g><rect fill="none" height="27.6094" id="_title" style="stroke:none;stroke-width:1.0;" width="104" x="285.25" y="15"/><text fill="#000000" font-family="Oxanium" font-size="14" font-weight="bold" lengthAdjust="spacing" textLength="94" x="290.25" y="34.5332">Attacco fisico</text><ellipse cx="326.5" cy="58.6094" fill="#0FFF50" rx="10" ry="10" style="stroke:#222222;stroke-width:1.0;"/><rect fill="none" height="431.0391" style="stroke:#000000;stroke-width:1.5;" width="275" x="195" y="78.6094"/><path d="M296,78.6094 L296,124.4375 L286,134.4375 L195,134.4375 " fill="none" style="stroke:#000000;stroke-width:1.5;"/><text fill="#000000" font-family="Oxanium" font-size="14" lengthAdjust="spacing" textLength="65" x="198" y="94.1426">Determina</text><text fill="#000000" font-family="Oxanium" font-size="14" lengthAdjust="spacing" textLength="72" x="198" y="111.752">la taglia del</text><text fill="#000000" font-family="Oxanium" font-size="14" lengthAdjust="spacing" textLength="91" x="198" y="129.3613">dado di danno</text><rect fill="#F1F1F1" height="35.0938" rx="12.5" ry="12.5" style="stroke:#2C84FA;stroke-width:0.5;" width="155" x="249" y="151.4375"/><text fill="#000000" font-family="Oxanium" font-size="12" lengthAdjust="spacing" textLength="135" x="259" y="173.8945">un dado danno standard</text><rect fill="#F1F1F1" height="35.0938" rx="12.5" ry="12.5" style="stroke:#2C84FA;stroke-width:0.5;" width="223" x="215" y="255.4492"/><text fill="#000000" font-family="Oxanium" font-size="12" lengthAdjust="spacing" textLength="203" x="225" y="277.9063">aggiungi un dado per ogni attaccante</text><polygon fill="#F1F1F1" points="286.5,206.5313,366.5,206.5313,378.5,218.5313,366.5,230.5313,286.5,230.5313,274.5,218.5313,286.5,206.5313" style="stroke:#2C84FA;stroke-width:0.5;"/><text fill="#F2F230" font-family="Oxanium" font-size="11" lengthAdjust="spacing" textLength="8" x="333.5" y="241.9502">sì</text><text fill="#000000" font-family="Oxanium" font-size="11" lengthAdjust="spacing" textLength="80" x="286.5" y="223.0322">many attackers?</text><text fill="#F2F230" font-family="Oxanium" font-size="11" lengthAdjust="spacing" textLength="12" x="381.5" y="216.1143">no</text><polygon fill="#F1F1F1" points="326.5,310.543,338.5,322.543,326.5,334.543,314.5,322.543,326.5,310.543" style="stroke:#2C84FA;stroke-width:0.5;"/><rect fill="#F1F1F1" height="50.1875" rx="12.5" ry="12.5" style="stroke:#2C84FA;stroke-width:0.5;" width="201" x="226" y="403.4609"/><text fill="#000000" font-family="Oxanium" font-size="12" lengthAdjust="spacing" textLength="178" x="236" y="425.918">aggiungere un dado per ciascun</text><text fill="#000000" font-family="Oxanium" font-size="12" lengthAdjust="spacing" textLength="176" x="236" y="441.0117">attaccante con una doppia arma</text><polygon fill="#F1F1F1" points="270,354.543,383,354.543,395,366.543,383,378.543,270,378.543,258,366.543,270,354.543" style="stroke:#2C84FA;stroke-width:0.5;"/><text fill="#F2F230" font-family="Oxanium" font-size="11" lengthAdjust="spacing" textLength="8" x="333.5" y="389.9619">sì</text><text fill="#000000" font-family="Oxanium" font-size="11" lengthAdjust="spacing" textLength="113" x="270" y="371.0439">attacco a doppia arma?</text><text fill="#F2F230" font-family="Oxanium" font-size="11" lengthAdjust="spacing" textLength="12" x="398" y="364.126">no</text><polygon fill="#F1F1F1" points="326.5,473.6484,338.5,485.6484,326.5,497.6484,314.5,485.6484,326.5,473.6484" style="stroke:#2C84FA;stroke-width:0.5;"/><rect fill="none" height="404.875" style="stroke:#000000;stroke-width:1.5;" width="496.5" x="166.875" y="519.6484"/><path d="M258.875,519.6484 L258.875,565.4766 L248.875,575.4766 L166.875,575.4766 " fill="none" style="stroke:#000000;stroke-width:1.5;"/><text fill="#000000" font-family="Oxanium" font-size="14" lengthAdjust="spacing" textLength="78" x="169.875" y="535.1816">Determinare</text><text fill="#000000" font-family="Oxanium" font-size="14" lengthAdjust="spacing" textLength="48" x="169.875" y="552.791">il tipo di</text><text fill="#000000" font-family="Oxanium" font-size="14" lengthAdjust="spacing" textLength="71" x="169.875" y="570.4004">dadi danno</text><rect fill="#F1F1F1" height="35.0938" rx="12.5" ry="12.5" style="stroke:#2C84FA;stroke-width:0.5;" width="214" x="219.5" y="592.4766"/><text fill="#000000" font-family="Oxanium" font-size="12" lengthAdjust="spacing" textLength="194" x="229.5" y="614.9336">Individualmente per ogni attaccante</text><polygon fill="#F1F1F1" points="244.5,647.5703,408.5,647.5703,420.5,659.5703,408.5,671.5703,244.5,671.5703,232.5,659.5703,244.5,647.5703" style="stroke:#2C84FA;stroke-width:0.5;"/><text fill="#000000" font-family="Oxanium" font-size="11" lengthAdjust="spacing" textLength="164" x="244.5" y="664.0713">attaccare senza un'arma definita?</text><text fill="#F2F230" font-family="Oxanium" font-size="11" lengthAdjust="spacing" textLength="8" x="224.5" y="657.1533">sì</text><text fill="#F2F230" font-family="Oxanium" font-size="11" lengthAdjust="spacing" textLength="12" x="423.5" y="657.1533">no</text><rect fill="#F1F1F1" height="35.0938" rx="12.5" ry="12.5" style="stroke:#2C84FA;stroke-width:0.5;" width="41" x="186.875" y="681.5703"/><text fill="#000000" font-family="Oxanium" font-size="12" lengthAdjust="spacing" textLength="21" x="196.875" y="704.0273">1d4</text><rect fill="#F1F1F1" height="35.0938" rx="12.5" ry="12.5" style="stroke:#2C84FA;stroke-width:0.5;" width="136" x="377.625" y="681.5703"/><text fill="#000000" font-family="Oxanium" font-size="12" lengthAdjust="spacing" textLength="116" x="387.625" y="704.0273">dadi danno dell'arma</text><polygon fill="#F1F1F1" points="391.125,736.6641,500.125,736.6641,512.125,748.6641,500.125,760.6641,391.125,760.6641,379.125,748.6641,391.125,736.6641" style="stroke:#2C84FA;stroke-width:0.5;"/><text fill="#000000" font-family="Oxanium" font-size="11" lengthAdjust="spacing" textLength="109" x="391.125" y="753.165">modificatore di attacco</text><rect fill="#F1F1F1" height="50.1875" rx="12.5" ry="12.5" style="stroke:#2C84FA;stroke-width:0.5;" width="189" x="247.875" y="798.3359"/><text fill="#000000" font-family="Oxanium" font-size="12" lengthAdjust="spacing" textLength="115" x="257.875" y="820.793">1d4o rispettivamente</text><text fill="#000000" font-family="Oxanium" font-size="12" lengthAdjust="spacing" textLength="82" x="257.875" y="835.8867">dado dell'arma</text><text fill="#000000" font-family="Oxanium" font-size="12" lengthAdjust="spacing" text-decoration="underline" textLength="81" x="342.875" y="835.8867">compromesso</text><text fill="#000000" font-family="Oxanium" font-size="12" lengthAdjust="spacing" textLength="3" x="423.875" y="835.8867"> </text><rect fill="#F1F1F1" height="50.1875" rx="12.5" ry="12.5" style="stroke:#2C84FA;stroke-width:0.5;" width="161" x="482.375" y="798.3359"/><text fill="#000000" font-family="Oxanium" font-size="12" lengthAdjust="spacing" textLength="125" x="492.375" y="820.793">1d12 o rispettivamente</text><text fill="#000000" font-family="Oxanium" font-size="12" lengthAdjust="spacing" textLength="82" x="492.375" y="835.8867">dado dell'arma</text><text fill="#000000" font-family="Oxanium" font-size="12" lengthAdjust="spacing" text-decoration="underline" textLength="56" x="577.375" y="835.8867">potenziato</text><polygon fill="#F1F1F1" points="445.625,858.5234,445.625,858.5234,457.625,870.5234,445.625,882.5234,445.625,882.5234,433.625,870.5234,445.625,858.5234" style="stroke:#2C84FA;stroke-width:0.5;"/><polygon fill="#F1F1F1" points="326.5,888.5234,338.5,900.5234,326.5,912.5234,314.5,900.5234,326.5,888.5234" style="stroke:#2C84FA;stroke-width:0.5;"/><path d="M403.5,948.8945 L403.5,958.0703 L383.5,962.0703 L403.5,966.0703 L403.5,975.2461 A0,0 0 0 0 403.5,975.2461 L665.5,975.2461 A0,0 0 0 0 665.5,975.2461 L665.5,958.8945 L655.5,948.8945 L403.5,948.8945 A0,0 0 0 0 403.5,948.8945 " fill="#FEFFDD" style="stroke:#181818;stroke-width:0.5;"/><path d="M655.5,948.8945 L655.5,958.8945 L665.5,958.8945 L655.5,948.8945 " fill="#FEFFDD" style="stroke:#181818;stroke-width:0.5;"/><text fill="#000000" font-family="Oxanium" font-size="13" lengthAdjust="spacing" textLength="241" x="409.5" y="967.3896">Attivazione cybermodifiche dell'attaccante</text><rect fill="#F1F1F1" height="35.0938" rx="12.5" ry="12.5" style="stroke:#2C84FA;stroke-width:0.5;" width="114" x="269.5" y="944.5234"/><text fill="#000000" font-family="Oxanium" font-size="12" lengthAdjust="spacing" textLength="94" x="279.5" y="966.9805">Fai un tiro di dadi</text><rect fill="#F1F1F1" height="65.2813" rx="12.5" ry="12.5" style="stroke:#2C84FA;stroke-width:0.5;" width="152" x="250.5" y="1048.5352"/><text fill="#000000" font-family="Oxanium" font-size="12" lengthAdjust="spacing" textLength="132" x="260.5" y="1070.9922">ripetere il tiro per i danni</text><text fill="#000000" font-family="Oxanium" font-size="12" lengthAdjust="spacing" textLength="118" x="260.5" y="1086.0859">per ogni personaggio</text><text fill="#000000" font-family="Oxanium" font-size="12" lengthAdjust="spacing" textLength="103" x="260.5" y="1101.1797">nel raggio d'azione</text><polygon fill="#F1F1F1" points="239.5,999.6172,413.5,999.6172,425.5,1011.6172,413.5,1023.6172,239.5,1023.6172,227.5,1011.6172,239.5,999.6172" style="stroke:#2C84FA;stroke-width:0.5;"/><text fill="#F2F230" font-family="Oxanium" font-size="11" lengthAdjust="spacing" textLength="8" x="333.5" y="1035.0361">sì</text><text fill="#000000" font-family="Oxanium" font-size="11" lengthAdjust="spacing" textLength="174" x="239.5" y="1016.1182">L'arma ha la caratterisca "scoppio"?</text><polygon fill="#F1F1F1" points="326.5,1133.8164,338.5,1145.8164,326.5,1157.8164,314.5,1145.8164,326.5,1133.8164" style="stroke:#2C84FA;stroke-width:0.5;"/><rect fill="#F1F1F1" height="35.0938" rx="12.5" ry="12.5" style="stroke:#2C84FA;stroke-width:0.5;" width="184" x="234.5" y="1177.8164"/><text fill="#000000" font-family="Oxanium" font-size="12" lengthAdjust="spacing" textLength="164" x="244.5" y="1200.2734">Seleziona il punteggio più alto</text><rect fill="#F1F1F1" height="65.2813" rx="12.5" ry="12.5" style="stroke:#2C84FA;stroke-width:0.5;" width="166" x="243.5" y="1232.9102"/><text fill="#000000" font-family="Oxanium" font-size="12" lengthAdjust="spacing" textLength="146" x="253.5" y="1255.3672">Sottrai il valore di armatura</text><text fill="#000000" font-family="Oxanium" font-size="12" lengthAdjust="spacing" text-decoration="underline" textLength="41" x="253.5" y="1270.4609">effettivo</text><text fill="#000000" font-family="Oxanium" font-size="12" lengthAdjust="spacing" textLength="65" x="297.5" y="1270.4609">della vittima</text><text fill="#000000" font-family="Oxanium" font-size="12" lengthAdjust="spacing" textLength="104" x="253.5" y="1285.5547">dal risultato del tiro</text><path d="M439.5,1370.8516 L439.5,1388.2031 L419.5,1392.2031 L439.5,1396.2031 L439.5,1413.5547 A0,0 0 0 0 439.5,1413.5547 L616.5,1413.5547 A0,0 0 0 0 616.5,1413.5547 L616.5,1380.8516 L606.5,1370.8516 L439.5,1370.8516 A0,0 0 0 0 439.5,1370.8516 " fill="#FEFFDD" style="stroke:#181818;stroke-width:0.5;"/><path d="M606.5,1370.8516 L606.5,1380.8516 L616.5,1380.8516 L606.5,1370.8516 " fill="#FEFFDD" style="stroke:#181818;stroke-width:0.5;"/><text fill="#000000" font-family="Oxanium" font-size="13" lengthAdjust="spacing" textLength="156" x="445.5" y="1389.3467">Attivazione Cybermodifiche</text><text fill="#000000" font-family="Oxanium" font-size="13" lengthAdjust="spacing" textLength="78" x="445.5" y="1405.6982">dell'avversario</text><rect fill="#F1F1F1" height="50.1875" rx="12.5" ry="12.5" style="stroke:#2C84FA;stroke-width:0.5;" width="186" x="233.5" y="1367.1094"/><text fill="#000000" font-family="Oxanium" font-size="12" lengthAdjust="spacing" textLength="109" x="243.5" y="1389.5664">Sottrai i punti danno</text><text fill="#000000" font-family="Oxanium" font-size="12" lengthAdjust="spacing" textLength="27" x="243.5" y="1404.6602">dagli</text><text fill="#000000" font-family="Oxanium" font-size="12" lengthAdjust="spacing" text-decoration="underline" textLength="37" x="273.5" y="1404.6602">effettivi</text><text fill="#000000" font-family="Oxanium" font-size="12" lengthAdjust="spacing" textLength="96" x="313.5" y="1404.6602">PF dell'avversario</text><polygon fill="#F1F1F1" points="224.5,1318.1914,428.5,1318.1914,440.5,1330.1914,428.5,1342.1914,224.5,1342.1914,212.5,1330.1914,224.5,1318.1914" style="stroke:#2C84FA;stroke-width:0.5;"/><text fill="#F2F230" font-family="Oxanium" font-size="11" lengthAdjust="spacing" textLength="12" x="333.5" y="1353.6104">no</text><text fill="#000000" font-family="Oxanium" font-size="11" lengthAdjust="spacing" textLength="204" x="224.5" y="1334.6924">PF dell'avversario inferiori o uguali a zero?</text><text fill="#F2F230" font-family="Oxanium" font-size="11" lengthAdjust="spacing" textLength="8" x="443.5" y="1327.7744">sì</text><polygon fill="#F1F1F1" points="326.5,1437.2969,338.5,1449.2969,326.5,1461.2969,314.5,1449.2969,326.5,1437.2969" style="stroke:#2C84FA;stroke-width:0.5;"/><polygon fill="#F1F1F1" points="206,1481.2969,447,1481.2969,459,1493.2969,447,1505.2969,206,1505.2969,194,1493.2969,206,1481.2969" style="stroke:#2C84FA;stroke-width:0.5;"/><text fill="#000000" font-family="Oxanium" font-size="11" lengthAdjust="spacing" textLength="241" x="206" y="1497.7979">numero di punti danno rimanenti maggiore di zero?</text><text fill="#F2F230" font-family="Oxanium" font-size="11" lengthAdjust="spacing" textLength="8" x="186" y="1490.8799">sì</text><text fill="#F2F230" font-family="Oxanium" font-size="11" lengthAdjust="spacing" textLength="12" x="462" y="1490.8799">no</text><path d="M297,1519.0391 L297,1536.3906 L277,1540.3906 L297,1544.3906 L297,1561.7422 A0,0 0 0 0 297,1561.7422 L474,1561.7422 A0,0 0 0 0 474,1561.7422 L474,1529.0391 L464,1519.0391 L297,1519.0391 A0,0 0 0 0 297,1519.0391 " fill="#FEFFDD" style="stroke:#181818;stroke-width:0.5;"/><path d="M464,1519.0391 L464,1529.0391 L474,1529.0391 L464,1519.0391 " fill="#FEFFDD" style="stroke:#181818;stroke-width:0.5;"/><text fill="#000000" font-family="Oxanium" font-size="13" lengthAdjust="spacing" textLength="156" x="303" y="1537.5342">Attivazione Cybermodifiche</text><text fill="#000000" font-family="Oxanium" font-size="13" lengthAdjust="spacing" textLength="78" x="303" y="1553.8857">dell'avversario</text><rect fill="#F1F1F1" height="50.1875" rx="12.5" ry="12.5" style="stroke:#2C84FA;stroke-width:0.5;" width="266" x="11" y="1515.2969"/><text fill="#000000" font-family="Oxanium" font-size="12" lengthAdjust="spacing" textLength="246" x="21" y="1537.7539">sottrarre la quantità rimanente di punti danno</text><text fill="#000000" font-family="Oxanium" font-size="12" lengthAdjust="spacing" textLength="149" x="21" y="1552.8477">dalla BIO del tuo avversario</text><rect fill="#F1F1F1" height="35.0938" rx="12.5" ry="12.5" style="stroke:#2C84FA;stroke-width:0.5;" width="202" x="43" y="1585.4844"/><text fill="#000000" font-family="Oxanium" font-size="12" lengthAdjust="spacing" textLength="182" x="53" y="1607.9414">Esegui una prova di danno critico</text><polygon fill="#F1F1F1" points="104,1640.5781,184,1640.5781,196,1652.5781,184,1664.5781,104,1664.5781,92,1652.5781,104,1640.5781" style="stroke:#2C84FA;stroke-width:0.5;"/><text fill="#000000" font-family="Oxanium" font-size="11" lengthAdjust="spacing" textLength="80" x="104" y="1657.0791">Prova superata?</text><text fill="#F2F230" font-family="Oxanium" font-size="11" lengthAdjust="spacing" textLength="8" x="84" y="1650.1611">sì</text><text fill="#F2F230" font-family="Oxanium" font-size="11" lengthAdjust="spacing" textLength="12" x="199" y="1650.1611">no</text><ellipse cx="82" cy="1684.5781" fill="none" rx="10" ry="10" style="stroke:#E949F5;stroke-width:1.5;"/><line style="stroke:#E949F5;stroke-width:2.5;" x1="75.8128" x2="88.1872" y1="1678.3909" y2="1690.7653"/><line style="stroke:#E949F5;stroke-width:2.5;" x1="88.1872" x2="75.8128" y1="1678.3909" y2="1690.7653"/><path d="M291,1678.3203 L291,1695.6719 L271,1699.6719 L291,1703.6719 L291,1721.0234 A0,0 0 0 0 291,1721.0234 L399,1721.0234 A0,0 0 0 0 399,1721.0234 L399,1688.3203 L389,1678.3203 L291,1678.3203 A0,0 0 0 0 291,1678.3203 " fill="#FEFFDD" style="stroke:#181818;stroke-width:0.5;"/><path d="M389,1678.3203 L389,1688.3203 L399,1688.3203 L389,1678.3203 " fill="#FEFFDD" style="stroke:#181818;stroke-width:0.5;"/><text fill="#000000" font-family="Oxanium" font-size="13" lengthAdjust="spacing" textLength="63" x="297" y="1696.8154">Attivazione</text><text fill="#000000" font-family="Oxanium" font-size="13" lengthAdjust="spacing" textLength="87" x="297" y="1713.167">cybermodifiche</text><rect fill="#F1F1F1" height="50.1875" rx="12.5" ry="12.5" style="stroke:#2C84FA;stroke-width:0.5;" width="130" x="141" y="1674.5781"/><text fill="#000000" font-family="Oxanium" font-size="12" lengthAdjust="spacing" textLength="110" x="151" y="1697.0352">applica tutti gli effetti</text><text fill="#000000" font-family="Oxanium" font-size="12" lengthAdjust="spacing" textLength="83" x="151" y="1712.1289">di danno critico</text><ellipse cx="509" cy="1525.2969" fill="none" rx="10" ry="10" style="stroke:#E949F5;stroke-width:1.5;"/><line style="stroke:#E949F5;stroke-width:2.5;" x1="502.8128" x2="515.1872" y1="1519.1097" y2="1531.4841"/><line style="stroke:#E949F5;stroke-width:2.5;" x1="515.1872" x2="502.8128" y1="1519.1097" y2="1531.4841"/><ellipse cx="326.5" cy="1754.7656" fill="none" rx="10" ry="10" style="stroke:#E949F5;stroke-width:1.5;"/><line style="stroke:#E949F5;stroke-width:2.5;" x1="320.3128" x2="332.6872" y1="1748.5784" y2="1760.9528"/><line style="stroke:#E949F5;stroke-width:2.5;" x1="332.6872" x2="320.3128" y1="1748.5784" y2="1760.9528"/><line style="stroke:#2C84FA;stroke-width:1.0;" x1="326.5" x2="326.5" y1="230.5313" y2="255.4492"/><polygon fill="#2C84FA" points="322.5,245.4492,326.5,255.4492,330.5,245.4492,326.5,249.4492" style="stroke:#2C84FA;stroke-width:1.0;"/><line style="stroke:#2C84FA;stroke-width:1.0;" x1="378.5" x2="448" y1="218.5313" y2="218.5313"/><polygon fill="#2C84FA" points="444,262.9961,448,272.9961,452,262.9961,448,266.9961" style="stroke:#2C84FA;stroke-width:1.0;"/><line style="stroke:#2C84FA;stroke-width:1.0;" x1="448" x2="448" y1="218.5313" y2="322.543"/><line style="stroke:#2C84FA;stroke-width:1.0;" x1="448" x2="338.5" y1="322.543" y2="322.543"/><polygon fill="#2C84FA" points="348.5,318.543,338.5,322.543,348.5,326.543,344.5,322.543" style="stroke:#2C84FA;stroke-width:1.0;"/><line style="stroke:#2C84FA;stroke-width:1.0;" x1="326.5" x2="326.5" y1="290.543" y2="310.543"/><polygon fill="#2C84FA" points="322.5,300.543,326.5,310.543,330.5,300.543,326.5,304.543" style="stroke:#2C84FA;stroke-width:1.0;"/><line style="stroke:#2C84FA;stroke-width:1.0;" x1="326.5" x2="326.5" y1="186.5313" y2="206.5313"/><polygon fill="#2C84FA" points="322.5,196.5313,326.5,206.5313,330.5,196.5313,326.5,200.5313" style="stroke:#2C84FA;stroke-width:1.0;"/><line style="stroke:#2C84FA;stroke-width:1.0;" x1="326.5" x2="326.5" y1="378.543" y2="403.4609"/><polygon fill="#2C84FA" points="322.5,393.4609,326.5,403.4609,330.5,393.4609,326.5,397.4609" style="stroke:#2C84FA;stroke-width:1.0;"/><line style="stroke:#2C84FA;stroke-width:1.0;" x1="395" x2="437" y1="366.543" y2="366.543"/><polygon fill="#2C84FA" points="433,418.5547,437,428.5547,441,418.5547,437,422.5547" style="stroke:#2C84FA;stroke-width:1.0;"/><line style="stroke:#2C84FA;stroke-width:1.0;" x1="437" x2="437" y1="366.543" y2="485.6484"/><line style="stroke:#2C84FA;stroke-width:1.0;" x1="437" x2="338.5" y1="485.6484" y2="485.6484"/><polygon fill="#2C84FA" points="348.5,481.6484,338.5,485.6484,348.5,489.6484,344.5,485.6484" style="stroke:#2C84FA;stroke-width:1.0;"/><line style="stroke:#2C84FA;stroke-width:1.0;" x1="326.5" x2="326.5" y1="453.6484" y2="473.6484"/><polygon fill="#2C84FA" points="322.5,463.6484,326.5,473.6484,330.5,463.6484,326.5,467.6484" style="stroke:#2C84FA;stroke-width:1.0;"/><line style="stroke:#2C84FA;stroke-width:1.0;" x1="326.5" x2="326.5" y1="334.543" y2="354.543"/><polygon fill="#2C84FA" points="322.5,344.543,326.5,354.543,330.5,344.543,326.5,348.543" style="stroke:#2C84FA;stroke-width:1.0;"/><line style="stroke:#2C84FA;stroke-width:1.0;" x1="326.5" x2="326.5" y1="68.6094" y2="151.4375"/><polygon fill="#2C84FA" points="322.5,141.4375,326.5,151.4375,330.5,141.4375,326.5,145.4375" style="stroke:#2C84FA;stroke-width:1.0;"/><line style="stroke:#2C84FA;stroke-width:1.0;" x1="379.125" x2="342.375" y1="748.6641" y2="748.6641"/><line style="stroke:#2C84FA;stroke-width:1.0;" x1="342.375" x2="342.375" y1="748.6641" y2="798.3359"/><polygon fill="#2C84FA" points="338.375,788.3359,342.375,798.3359,346.375,788.3359,342.375,792.3359" style="stroke:#2C84FA;stroke-width:1.0;"/><text fill="#F2F230" font-family="Oxanium" font-size="11" lengthAdjust="spacing" textLength="117" x="345.375" y="778.001">posizione compromessa</text><line style="stroke:#2C84FA;stroke-width:1.0;" x1="512.125" x2="562.875" y1="748.6641" y2="748.6641"/><line style="stroke:#2C84FA;stroke-width:1.0;" x1="562.875" x2="562.875" y1="748.6641" y2="798.3359"/><polygon fill="#2C84FA" points="558.875,788.3359,562.875,798.3359,566.875,788.3359,562.875,792.3359" style="stroke:#2C84FA;stroke-width:1.0;"/><text fill="#F2F230" font-family="Oxanium" font-size="11" lengthAdjust="spacing" textLength="47" x="565.875" y="778.001">vantaggio</text><line style="stroke:#2C84FA;stroke-width:1.0;" x1="342.375" x2="342.375" y1="848.5234" y2="870.5234"/><line style="stroke:#2C84FA;stroke-width:1.0;" x1="342.375" x2="433.625" y1="870.5234" y2="870.5234"/><polygon fill="#2C84FA" points="423.625,866.5234,433.625,870.5234,423.625,874.5234,427.625,870.5234" style="stroke:#2C84FA;stroke-width:1.0;"/><line style="stroke:#2C84FA;stroke-width:1.0;" x1="562.875" x2="562.875" y1="848.5234" y2="870.5234"/><line style="stroke:#2C84FA;stroke-width:1.0;" x1="562.875" x2="457.625" y1="870.5234" y2="870.5234"/><polygon fill="#2C84FA" points="467.625,866.5234,457.625,870.5234,467.625,874.5234,463.625,870.5234" style="stroke:#2C84FA;stroke-width:1.0;"/><line style="stroke:#2C84FA;stroke-width:1.0;" x1="445.625" x2="445.625" y1="716.6641" y2="736.6641"/><polygon fill="#2C84FA" points="441.625,726.6641,445.625,736.6641,449.625,726.6641,445.625,730.6641" style="stroke:#2C84FA;stroke-width:1.0;"/><line style="stroke:#2C84FA;stroke-width:1.0;" x1="232.5" x2="207.375" y1="659.5703" y2="659.5703"/><line style="stroke:#2C84FA;stroke-width:1.0;" x1="207.375" x2="207.375" y1="659.5703" y2="681.5703"/><polygon fill="#2C84FA" points="203.375,671.5703,207.375,681.5703,211.375,671.5703,207.375,675.5703" style="stroke:#2C84FA;stroke-width:1.0;"/><line style="stroke:#2C84FA;stroke-width:1.0;" x1="420.5" x2="445.625" y1="659.5703" y2="659.5703"/><line style="stroke:#2C84FA;stroke-width:1.0;" x1="445.625" x2="445.625" y1="659.5703" y2="681.5703"/><polygon fill="#2C84FA" points="441.625,671.5703,445.625,681.5703,449.625,671.5703,445.625,675.5703" style="stroke:#2C84FA;stroke-width:1.0;"/><line style="stroke:#2C84FA;stroke-width:1.0;" x1="207.375" x2="207.375" y1="716.6641" y2="900.5234"/><line style="stroke:#2C84FA;stroke-width:1.0;" x1="207.375" x2="314.5" y1="900.5234" y2="900.5234"/><polygon fill="#2C84FA" points="304.5,896.5234,314.5,900.5234,304.5,904.5234,308.5,900.5234" style="stroke:#2C84FA;stroke-width:1.0;"/><line style="stroke:#2C84FA;stroke-width:1.0;" x1="445.625" x2="445.625" y1="882.5234" y2="900.5234"/><line style="stroke:#2C84FA;stroke-width:1.0;" x1="445.625" x2="338.5" y1="900.5234" y2="900.5234"/><polygon fill="#2C84FA" points="348.5,896.5234,338.5,900.5234,348.5,904.5234,344.5,900.5234" style="stroke:#2C84FA;stroke-width:1.0;"/><line style="stroke:#2C84FA;stroke-width:1.0;" x1="326.5" x2="326.5" y1="627.5703" y2="647.5703"/><polygon fill="#2C84FA" points="322.5,637.5703,326.5,647.5703,330.5,637.5703,326.5,641.5703" style="stroke:#2C84FA;stroke-width:1.0;"/><line style="stroke:#2C84FA;stroke-width:1.0;" x1="326.5" x2="326.5" y1="497.6484" y2="592.4766"/><polygon fill="#2C84FA" points="322.5,582.4766,326.5,592.4766,330.5,582.4766,326.5,586.4766" style="stroke:#2C84FA;stroke-width:1.0;"/><line style="stroke:#2C84FA;stroke-width:1.0;" x1="326.5" x2="326.5" y1="912.5234" y2="944.5234"/><polygon fill="#2C84FA" points="322.5,934.5234,326.5,944.5234,330.5,934.5234,326.5,938.5234" style="stroke:#2C84FA;stroke-width:1.0;"/><line style="stroke:#2C84FA;stroke-width:1.0;" x1="326.5" x2="326.5" y1="1023.6172" y2="1048.5352"/><polygon fill="#2C84FA" points="322.5,1038.5352,326.5,1048.5352,330.5,1038.5352,326.5,1042.5352" style="stroke:#2C84FA;stroke-width:1.0;"/><line style="stroke:#2C84FA;stroke-width:1.0;" x1="425.5" x2="437.5" y1="1011.6172" y2="1011.6172"/><polygon fill="#2C84FA" points="433.5,1071.1758,437.5,1081.1758,441.5,1071.1758,437.5,1075.1758" style="stroke:#2C84FA;stroke-width:1.0;"/><line style="stroke:#2C84FA;stroke-width:1.0;" x1="437.5" x2="437.5" y1="1011.6172" y2="1145.8164"/><line style="stroke:#2C84FA;stroke-width:1.0;" x1="437.5" x2="338.5" y1="1145.8164" y2="1145.8164"/><polygon fill="#2C84FA" points="348.5,1141.8164,338.5,1145.8164,348.5,1149.8164,344.5,1145.8164" style="stroke:#2C84FA;stroke-width:1.0;"/><line style="stroke:#2C84FA;stroke-width:1.0;" x1="326.5" x2="326.5" y1="1113.8164" y2="1133.8164"/><polygon fill="#2C84FA" points="322.5,1123.8164,326.5,1133.8164,330.5,1123.8164,326.5,1127.8164" style="stroke:#2C84FA;stroke-width:1.0;"/><line style="stroke:#2C84FA;stroke-width:1.0;" x1="326.5" x2="326.5" y1="979.6172" y2="999.6172"/><polygon fill="#2C84FA" points="322.5,989.6172,326.5,999.6172,330.5,989.6172,326.5,993.6172" style="stroke:#2C84FA;stroke-width:1.0;"/><line style="stroke:#2C84FA;stroke-width:1.0;" x1="326.5" x2="326.5" y1="1157.8164" y2="1177.8164"/><polygon fill="#2C84FA" points="322.5,1167.8164,326.5,1177.8164,330.5,1167.8164,326.5,1171.8164" style="stroke:#2C84FA;stroke-width:1.0;"/><line style="stroke:#2C84FA;stroke-width:1.0;" x1="326.5" x2="326.5" y1="1212.9102" y2="1232.9102"/><polygon fill="#2C84FA" points="322.5,1222.9102,326.5,1232.9102,330.5,1222.9102,326.5,1226.9102" style="stroke:#2C84FA;stroke-width:1.0;"/><line style="stroke:#2C84FA;stroke-width:1.0;" x1="326.5" x2="326.5" y1="1342.1914" y2="1367.1094"/><polygon fill="#2C84FA" points="322.5,1357.1094,326.5,1367.1094,330.5,1357.1094,326.5,1361.1094" style="stroke:#2C84FA;stroke-width:1.0;"/><line style="stroke:#2C84FA;stroke-width:1.0;" x1="440.5" x2="626.5" y1="1330.1914" y2="1330.1914"/><polygon fill="#2C84FA" points="622.5,1382.2031,626.5,1392.2031,630.5,1382.2031,626.5,1386.2031" style="stroke:#2C84FA;stroke-width:1.0;"/><line style="stroke:#2C84FA;stroke-width:1.0;" x1="626.5" x2="626.5" y1="1330.1914" y2="1449.2969"/><line style="stroke:#2C84FA;stroke-width:1.0;" x1="626.5" x2="338.5" y1="1449.2969" y2="1449.2969"/><polygon fill="#2C84FA" points="348.5,1445.2969,338.5,1449.2969,348.5,1453.2969,344.5,1449.2969" style="stroke:#2C84FA;stroke-width:1.0;"/><line style="stroke:#2C84FA;stroke-width:1.0;" x1="326.5" x2="326.5" y1="1417.2969" y2="1437.2969"/><polygon fill="#2C84FA" points="322.5,1427.2969,326.5,1437.2969,330.5,1427.2969,326.5,1431.2969" style="stroke:#2C84FA;stroke-width:1.0;"/><line style="stroke:#2C84FA;stroke-width:1.0;" x1="326.5" x2="326.5" y1="1298.1914" y2="1318.1914"/><polygon fill="#2C84FA" points="322.5,1308.1914,326.5,1318.1914,330.5,1308.1914,326.5,1312.1914" style="stroke:#2C84FA;stroke-width:1.0;"/><line style="stroke:#2C84FA;stroke-width:1.0;" x1="144" x2="144" y1="1565.4844" y2="1585.4844"/><polygon fill="#2C84FA" points="140,1575.4844,144,1585.4844,148,1575.4844,144,1579.4844" style="stroke:#2C84FA;stroke-width:1.0;"/><line style="stroke:#2C84FA;stroke-width:1.0;" x1="92" x2="82" y1="1652.5781" y2="1652.5781"/><line style="stroke:#2C84FA;stroke-width:1.0;" x1="82" x2="82" y1="1652.5781" y2="1674.5781"/><polygon fill="#2C84FA" points="78,1664.5781,82,1674.5781,86,1664.5781,82,1668.5781" style="stroke:#2C84FA;stroke-width:1.0;"/><line style="stroke:#2C84FA;stroke-width:1.0;" x1="196" x2="206" y1="1652.5781" y2="1652.5781"/><line style="stroke:#2C84FA;stroke-width:1.0;" x1="206" x2="206" y1="1652.5781" y2="1674.5781"/><polygon fill="#2C84FA" points="202,1664.5781,206,1674.5781,210,1664.5781,206,1668.5781" style="stroke:#2C84FA;stroke-width:1.0;"/><line style="stroke:#2C84FA;stroke-width:1.0;" x1="206" x2="206" y1="1724.7656" y2="1729.7656"/><line style="stroke:#2C84FA;stroke-width:1.0;" x1="206" x2="326.5" y1="1729.7656" y2="1729.7656"/><line style="stroke:#2C84FA;stroke-width:1.0;" x1="326.5" x2="326.5" y1="1729.7656" y2="1744.7656"/><polygon fill="#2C84FA" points="322.5,1734.7656,326.5,1744.7656,330.5,1734.7656,326.5,1738.7656" style="stroke:#2C84FA;stroke-width:1.0;"/><line style="stroke:#2C84FA;stroke-width:1.0;" x1="144" x2="144" y1="1620.5781" y2="1640.5781"/><polygon fill="#2C84FA" points="140,1630.5781,144,1640.5781,148,1630.5781,144,1634.5781" style="stroke:#2C84FA;stroke-width:1.0;"/><line style="stroke:#2C84FA;stroke-width:1.0;" x1="194" x2="144" y1="1493.2969" y2="1493.2969"/><line style="stroke:#2C84FA;stroke-width:1.0;" x1="144" x2="144" y1="1493.2969" y2="1515.2969"/><polygon fill="#2C84FA" points="140,1505.2969,144,1515.2969,148,1505.2969,144,1509.2969" style="stroke:#2C84FA;stroke-width:1.0;"/><line style="stroke:#2C84FA;stroke-width:1.0;" x1="459" x2="509" y1="1493.2969" y2="1493.2969"/><line style="stroke:#2C84FA;stroke-width:1.0;" x1="509" x2="509" y1="1493.2969" y2="1515.2969"/><polygon fill="#2C84FA" points="505,1505.2969,509,1515.2969,513,1505.2969,509,1509.2969" style="stroke:#2C84FA;stroke-width:1.0;"/><line style="stroke:#2C84FA;stroke-width:1.0;" x1="326.5" x2="326.5" y1="1461.2969" y2="1481.2969"/><polygon fill="#2C84FA" points="322.5,1471.2969,326.5,1481.2969,330.5,1471.2969,326.5,1475.2969" style="stroke:#2C84FA;stroke-width:1.0;"/><!--MD5=[50f13837d94825b9ad4b202cdf4ca222]
@startuml "Attacco fisico"
title "Attacco fisico"
skinparam defaultFontName Oxanium
skinparam activity {
  StartColor #0fff50
  BarColor #2c84fa
  EndColor #e949f5
  BorderColor #2c84fa
  ArrowColor #2c84fa
  FontName Oxanium
}
start
group Determina \nla taglia del\ndado di danno
:un dado danno standard;
if (many attackers?) then (<color:#f2f230> sì)
:aggiungi un dado per ogni attaccante;
else (<color:#f2f230> no)
endif
if (attacco a doppia arma?) then (<color:#f2f230> sì)
:aggiungere un dado per ciascun \nattaccante con una doppia arma;
else (<color:#f2f230> no)
endif
end group
group Determinare \nil tipo di\ndadi danno
:Individualmente per ogni attaccante;
if (attaccare senza un'arma definita?) then (<color:#f2f230> sì)
:1d4;
else (<color:#f2f230> no)
:dadi danno dell'arma;
switch (modificatore di attacco)
case (<color:#f2f230> posizione compromessa)
:1d4o rispettivamente
dado dell'arma __compromesso__ ;
case (<color:#f2f230> vantaggio)
:1d12 o rispettivamente
dado dell'arma __potenziato__;
endswitch 
endif
end group
:Fai un tiro di dadi;
note right
Attivazione cybermodifiche dell'attaccante
end note
if (L'arma ha la caratterisca "scoppio"?) then (<color:#f2f230> sì)
:ripetere il tiro per i danni
per ogni personaggio
nel raggio d'azione;
endif
:Seleziona il punteggio più alto;
:Sottrai il valore di armatura 
__effettivo__ della vittima 
dal risultato del tiro;
if (PF dell'avversario inferiori o uguali a zero?) then (<color:#f2f230> no)
:Sottrai i punti danno
dagli __effettivi__ PF dell'avversario;
note right
Attivazione Cybermodifiche
dell'avversario
endnote
else (<color:#f2f230> sì)
endif 
if (numero di punti danno rimanenti maggiore di zero?) then (<color:#f2f230> sì)
:sottrarre la quantità rimanente di punti danno
dalla BIO del tuo avversario;
note right
Attivazione Cybermodifiche
dell'avversario
endnote
:Esegui una prova di danno critico;
if (Prova superata?) then (<color:#f2f230> sì)
  end
else (<color:#f2f230> no)
  :applica tutti gli effetti
  di danno critico;
  note right
  Attivazione
  cybermodifiche
  endnote
endif
else (<color:#f2f230> no)
 end
endif
end
@enduml

PlantUML version 1.2022.7(Mon Aug 22 19:01:30 CEST 2022)
(GPL source distribution)
Java Runtime: Java(TM) SE Runtime Environment
JVM: Java HotSpot(TM) 64-Bit Server VM
Default Encoding: Cp1252
Language: it
Country: IT
--></g></svg>