<?xml version="1.0" encoding="UTF-8" standalone="no"?><svg xmlns="http://www.w3.org/2000/svg" xmlns:xlink="http://www.w3.org/1999/xlink" contentStyleType="text/css" height="1177px" preserveAspectRatio="none" style="width:566px;height:1177px;background:#FFFFFF;" version="1.1" viewBox="0 0 566 1177" width="566px" zoomAndPan="magnify"><defs/><g><rect fill="none" height="27.6094" id="_title" style="stroke:none;stroke-width:1.0;" width="158" x="202.5" y="15"/><text fill="#000000" font-family="Oxanium" font-size="14" font-weight="bold" lengthAdjust="spacing" textLength="148" x="207.5" y="34.5332">Attacco nell'Infosfera</text><ellipse cx="253" cy="58.6094" fill="#0FFF50" rx="10" ry="10" style="stroke:#222222;stroke-width:1.0;"/><rect fill="none" height="250.3242" style="stroke:#000000;stroke-width:1.5;" width="308" x="99" y="78.6094"/><path d="M187,78.6094 L187,106.8281 L177,116.8281 L99,116.8281 " fill="none" style="stroke:#000000;stroke-width:1.5;"/><text fill="#000000" font-family="Oxanium" font-size="14" lengthAdjust="spacing" textLength="65" x="102" y="94.1426">Determina</text><text fill="#000000" font-family="Oxanium" font-size="14" lengthAdjust="spacing" textLength="78" x="102" y="111.752">i dadi danno</text><rect fill="#F1F1F1" height="35.0938" rx="12.5" ry="12.5" style="stroke:#2C84FA;stroke-width:0.5;" width="288" x="109" y="133.8281"/><text fill="#000000" font-family="Oxanium" font-size="12" lengthAdjust="spacing" textLength="268" x="119" y="156.2852">Dadi danno del neuroprocessore come standard</text><rect fill="#F1F1F1" height="35.0938" rx="12.5" ry="12.5" style="stroke:#2C84FA;stroke-width:0.5;" width="223" x="141.5" y="237.8398"/><text fill="#000000" font-family="Oxanium" font-size="12" lengthAdjust="spacing" textLength="203" x="151.5" y="260.2969">aggiungi un dado per ogni attaccante</text><polygon fill="#F1F1F1" points="209.5,188.9219,296.5,188.9219,308.5,200.9219,296.5,212.9219,209.5,212.9219,197.5,200.9219,209.5,188.9219" style="stroke:#2C84FA;stroke-width:0.5;"/><text fill="#F2F230" font-family="Oxanium" font-size="11" lengthAdjust="spacing" textLength="8" x="260" y="224.3408">sì</text><text fill="#000000" font-family="Oxanium" font-size="11" lengthAdjust="spacing" textLength="87" x="209.5" y="205.4229">attaccanti multipli?</text><text fill="#F2F230" font-family="Oxanium" font-size="11" lengthAdjust="spacing" textLength="12" x="311.5" y="198.5049">no</text><polygon fill="#F1F1F1" points="253,292.9336,265,304.9336,253,316.9336,241,304.9336,253,292.9336" style="stroke:#2C84FA;stroke-width:0.5;"/><rect fill="#F1F1F1" height="35.0938" rx="12.5" ry="12.5" style="stroke:#2C84FA;stroke-width:0.5;" width="74" x="216" y="348.9336"/><text fill="#000000" font-family="Oxanium" font-size="12" lengthAdjust="spacing" textLength="54" x="226" y="371.3906">Fai un tiro</text><rect fill="#F1F1F1" height="65.2813" rx="12.5" ry="12.5" style="stroke:#2C84FA;stroke-width:0.5;" width="178" x="164" y="404.0273"/><text fill="#000000" font-family="Oxanium" font-size="12" lengthAdjust="spacing" textLength="140" x="174" y="426.4844">Seleziona un attaccante e</text><text fill="#000000" font-family="Oxanium" font-size="12" lengthAdjust="spacing" textLength="158" x="174" y="441.5781">ricorda il risultato del suo tiro</text><text fill="#000000" font-family="Oxanium" font-size="12" lengthAdjust="spacing" textLength="158" x="174" y="456.6719">(attacco al neuroprocessore)</text><path d="M343,493.0508 L343,510.4023 L323,514.4023 L343,518.4023 L343,535.7539 A0,0 0 0 0 343,535.7539 L517,535.7539 A0,0 0 0 0 517,535.7539 L517,503.0508 L507,493.0508 L343,493.0508 A0,0 0 0 0 343,493.0508 " fill="#FEFFDD" style="stroke:#181818;stroke-width:0.5;"/><path d="M507,493.0508 L507,503.0508 L517,503.0508 L507,493.0508 " fill="#FEFFDD" style="stroke:#181818;stroke-width:0.5;"/><text fill="#000000" font-family="Oxanium" font-size="13" lengthAdjust="spacing" textLength="136" x="349" y="511.5459">Attivazione del software</text><text fill="#000000" font-family="Oxanium" font-size="13" lengthAdjust="spacing" textLength="153" x="349" y="527.8975">dell'attaccante selezionato</text><rect fill="#F1F1F1" height="50.1875" rx="12.5" ry="12.5" style="stroke:#2C84FA;stroke-width:0.5;" width="140" x="183" y="489.3086"/><text fill="#000000" font-family="Oxanium" font-size="12" lengthAdjust="spacing" textLength="81" x="193" y="511.7656">aggiungi i dadi</text><text fill="#000000" font-family="Oxanium" font-size="12" lengthAdjust="spacing" textLength="120" x="193" y="526.8594">di attivazione software</text><rect fill="#F1F1F1" height="80.375" rx="12.5" ry="12.5" style="stroke:#2C84FA;stroke-width:0.5;" width="185" x="160.5" y="559.4961"/><text fill="#000000" font-family="Oxanium" font-size="12" lengthAdjust="spacing" textLength="145" x="170.5" y="581.9531">eseguire un tiro aggiuntivo</text><text fill="#000000" font-family="Oxanium" font-size="12" lengthAdjust="spacing" textLength="125" x="170.5" y="597.0469">di dadi danno software</text><text fill="#000000" font-family="Oxanium" font-size="12" lengthAdjust="spacing" textLength="114" x="170.5" y="612.1406">e aggiungi il risultato</text><text fill="#000000" font-family="Oxanium" font-size="12" lengthAdjust="spacing" textLength="165" x="170.5" y="627.2344">all'attacco al neuroprocessore</text><path d="M366,671.1602 L366,688.5117 L346,692.5117 L366,696.5117 L366,713.8633 A0,0 0 0 0 366,713.8633 L467,713.8633 A0,0 0 0 0 467,713.8633 L467,681.1602 L457,671.1602 L366,671.1602 A0,0 0 0 0 366,671.1602 " fill="#FEFFDD" style="stroke:#181818;stroke-width:0.5;"/><path d="M457,671.1602 L457,681.1602 L467,681.1602 L457,671.1602 " fill="#FEFFDD" style="stroke:#181818;stroke-width:0.5;"/><text fill="#000000" font-family="Oxanium" font-size="13" lengthAdjust="spacing" textLength="63" x="372" y="689.6553">Attivazione</text><text fill="#000000" font-family="Oxanium" font-size="13" lengthAdjust="spacing" textLength="80" x="372" y="706.0068">software nodo</text><rect fill="#F1F1F1" height="65.2813" rx="12.5" ry="12.5" style="stroke:#2C84FA;stroke-width:0.5;" width="186" x="160" y="659.8711"/><text fill="#000000" font-family="Oxanium" font-size="12" lengthAdjust="spacing" textLength="80" x="170" y="682.3281">Sottrai il valore</text><text fill="#000000" font-family="Oxanium" font-size="12" lengthAdjust="spacing" textLength="166" x="170" y="697.4219">di armatura INF dell'avversario</text><text fill="#000000" font-family="Oxanium" font-size="12" lengthAdjust="spacing" textLength="64" x="170" y="712.5156">dal risultato</text><polygon fill="#F1F1F1" points="169.5,745.1523,336.5,745.1523,348.5,757.1523,336.5,769.1523,169.5,769.1523,157.5,757.1523,169.5,745.1523" style="stroke:#2C84FA;stroke-width:0.5;"/><text fill="#000000" font-family="Oxanium" font-size="11" lengthAdjust="spacing" textLength="167" x="169.5" y="761.6533">PF del nodo minori o uguali a zero?</text><text fill="#F2F230" font-family="Oxanium" font-size="11" lengthAdjust="spacing" textLength="8" x="149.5" y="754.7354">sì</text><text fill="#F2F230" font-family="Oxanium" font-size="11" lengthAdjust="spacing" textLength="12" x="351.5" y="754.7354">no</text><rect fill="#0FFF50" height="35.0938" rx="12.5" ry="12.5" style="stroke:#2C84FA;stroke-width:0.5;" width="165" x="65" y="779.1523"/><text fill="#000000" font-family="Oxanium" font-size="12" lengthAdjust="spacing" textLength="145" x="75" y="801.6094">prendi il controllo del nodo</text><path d="M453,782.8945 L453,800.2461 L433,804.2461 L453,808.2461 L453,825.5977 A0,0 0 0 0 453,825.5977 L554,825.5977 A0,0 0 0 0 554,825.5977 L554,792.8945 L544,782.8945 L453,782.8945 A0,0 0 0 0 453,782.8945 " fill="#FEFFDD" style="stroke:#181818;stroke-width:0.5;"/><path d="M544,782.8945 L544,792.8945 L554,792.8945 L544,782.8945 " fill="#FEFFDD" style="stroke:#181818;stroke-width:0.5;"/><text fill="#000000" font-family="Oxanium" font-size="13" lengthAdjust="spacing" textLength="63" x="459" y="801.3896">Attivazione</text><text fill="#000000" font-family="Oxanium" font-size="13" lengthAdjust="spacing" textLength="80" x="459" y="817.7412">software nodo</text><rect fill="#F1F1F1" height="50.1875" rx="12.5" ry="12.5" style="stroke:#2C84FA;stroke-width:0.5;" width="149" x="284" y="779.1523"/><text fill="#000000" font-family="Oxanium" font-size="12" lengthAdjust="spacing" textLength="109" x="294" y="801.6094">Sottrai i punti danno</text><text fill="#000000" font-family="Oxanium" font-size="12" lengthAdjust="spacing" textLength="35" x="294" y="816.7031">dai PF</text><text fill="#000000" font-family="Oxanium" font-size="12" lengthAdjust="spacing" text-decoration="underline" textLength="37" x="332" y="816.7031">effettivi</text><text fill="#000000" font-family="Oxanium" font-size="12" lengthAdjust="spacing" textLength="51" x="372" y="816.7031">del nodo.</text><polygon fill="#F1F1F1" points="253,835.3398,265,847.3398,253,859.3398,241,847.3398,253,835.3398" style="stroke:#2C84FA;stroke-width:0.5;"/><polygon fill="#F1F1F1" points="177,879.3398,329,879.3398,341,893.1758,329,907.0117,177,907.0117,165,893.1758,177,879.3398" style="stroke:#2C84FA;stroke-width:0.5;"/><text fill="#000000" font-family="Oxanium" font-size="11" lengthAdjust="spacing" textLength="152" x="177" y="890.7588">numero di punti danno rimanenti</text><text fill="#000000" font-family="Oxanium" font-size="11" lengthAdjust="spacing" textLength="82" x="189" y="904.5947">maggiori di zero?</text><text fill="#F2F230" font-family="Oxanium" font-size="11" lengthAdjust="spacing" textLength="8" x="157" y="890.7588">sì</text><text fill="#F2F230" font-family="Oxanium" font-size="11" lengthAdjust="spacing" textLength="12" x="344" y="890.7588">no</text><path d="M222,920.7539 L222,938.1055 L202,942.1055 L222,946.1055 L222,963.457 A0,0 0 0 0 222,963.457 L323,963.457 A0,0 0 0 0 323,963.457 L323,930.7539 L313,920.7539 L222,920.7539 A0,0 0 0 0 222,920.7539 " fill="#FEFFDD" style="stroke:#181818;stroke-width:0.5;"/><path d="M313,920.7539 L313,930.7539 L323,930.7539 L313,920.7539 " fill="#FEFFDD" style="stroke:#181818;stroke-width:0.5;"/><text fill="#000000" font-family="Oxanium" font-size="13" lengthAdjust="spacing" textLength="63" x="228" y="939.249">Attivazione</text><text fill="#000000" font-family="Oxanium" font-size="13" lengthAdjust="spacing" textLength="80" x="228" y="955.6006">software nodo</text><rect fill="#F1F1F1" height="50.1875" rx="12.5" ry="12.5" style="stroke:#2C84FA;stroke-width:0.5;" width="180" x="22" y="917.0117"/><text fill="#000000" font-family="Oxanium" font-size="12" lengthAdjust="spacing" textLength="148" x="32" y="939.4688">sottrai il totale rimanente di</text><text fill="#000000" font-family="Oxanium" font-size="12" lengthAdjust="spacing" textLength="160" x="32" y="954.5625">punti danno dall'INF del nodo</text><rect fill="#F1F1F1" height="35.0938" rx="12.5" ry="12.5" style="stroke:#2C84FA;stroke-width:0.5;" width="202" x="11" y="987.1992"/><text fill="#000000" font-family="Oxanium" font-size="12" lengthAdjust="spacing" textLength="182" x="21" y="1009.6563">Esegui una prova di danno critico</text><polygon fill="#F1F1F1" points="72,1042.293,152,1042.293,164,1054.293,152,1066.293,72,1066.293,60,1054.293,72,1042.293" style="stroke:#2C84FA;stroke-width:0.5;"/><text fill="#000000" font-family="Oxanium" font-size="11" lengthAdjust="spacing" textLength="80" x="72" y="1058.7939">Prova superata?</text><text fill="#F2F230" font-family="Oxanium" font-size="11" lengthAdjust="spacing" textLength="8" x="52" y="1051.876">sì</text><text fill="#F2F230" font-family="Oxanium" font-size="11" lengthAdjust="spacing" textLength="12" x="167" y="1051.876">no</text><ellipse cx="50" cy="1086.293" fill="none" rx="10" ry="10" style="stroke:#E949F5;stroke-width:1.5;"/><line style="stroke:#E949F5;stroke-width:2.5;" x1="43.8128" x2="56.1872" y1="1080.1058" y2="1092.4802"/><line style="stroke:#E949F5;stroke-width:2.5;" x1="56.1872" x2="43.8128" y1="1080.1058" y2="1092.4802"/><path d="M248,1080.0352 L248,1097.3867 L228,1101.3867 L248,1105.3867 L248,1122.7383 A0,0 0 0 0 248,1122.7383 L349,1122.7383 A0,0 0 0 0 349,1122.7383 L349,1090.0352 L339,1080.0352 L248,1080.0352 A0,0 0 0 0 248,1080.0352 " fill="#FEFFDD" style="stroke:#181818;stroke-width:0.5;"/><path d="M339,1080.0352 L339,1090.0352 L349,1090.0352 L339,1080.0352 " fill="#FEFFDD" style="stroke:#181818;stroke-width:0.5;"/><text fill="#000000" font-family="Oxanium" font-size="13" lengthAdjust="spacing" textLength="63" x="254" y="1098.5303">Attivazione</text><text fill="#000000" font-family="Oxanium" font-size="13" lengthAdjust="spacing" textLength="80" x="254" y="1114.8818">software nodo</text><rect fill="#F1F1F1" height="50.1875" rx="12.5" ry="12.5" style="stroke:#2C84FA;stroke-width:0.5;" width="108" x="120" y="1076.293"/><text fill="#000000" font-family="Oxanium" font-size="12" lengthAdjust="spacing" textLength="88" x="130" y="1098.75">applica gli effetti</text><text fill="#000000" font-family="Oxanium" font-size="12" lengthAdjust="spacing" textLength="82" x="130" y="1113.8438">dei danni critici</text><ellipse cx="394" cy="927.0117" fill="none" rx="10" ry="10" style="stroke:#E949F5;stroke-width:1.5;"/><line style="stroke:#E949F5;stroke-width:2.5;" x1="387.8128" x2="400.1872" y1="920.8245" y2="933.1989"/><line style="stroke:#E949F5;stroke-width:2.5;" x1="400.1872" x2="387.8128" y1="920.8245" y2="933.1989"/><ellipse cx="253" cy="1156.4805" fill="none" rx="10" ry="10" style="stroke:#E949F5;stroke-width:1.5;"/><line style="stroke:#E949F5;stroke-width:2.5;" x1="246.8128" x2="259.1872" y1="1150.2933" y2="1162.6677"/><line style="stroke:#E949F5;stroke-width:2.5;" x1="259.1872" x2="246.8128" y1="1150.2933" y2="1162.6677"/><line style="stroke:#2C84FA;stroke-width:1.0;" x1="253" x2="253" y1="212.9219" y2="237.8398"/><polygon fill="#2C84FA" points="249,227.8398,253,237.8398,257,227.8398,253,231.8398" style="stroke:#2C84FA;stroke-width:1.0;"/><line style="stroke:#2C84FA;stroke-width:1.0;" x1="308.5" x2="374.5" y1="200.9219" y2="200.9219"/><polygon fill="#2C84FA" points="370.5,245.3867,374.5,255.3867,378.5,245.3867,374.5,249.3867" style="stroke:#2C84FA;stroke-width:1.0;"/><line style="stroke:#2C84FA;stroke-width:1.0;" x1="374.5" x2="374.5" y1="200.9219" y2="304.9336"/><line style="stroke:#2C84FA;stroke-width:1.0;" x1="374.5" x2="265" y1="304.9336" y2="304.9336"/><polygon fill="#2C84FA" points="275,300.9336,265,304.9336,275,308.9336,271,304.9336" style="stroke:#2C84FA;stroke-width:1.0;"/><line style="stroke:#2C84FA;stroke-width:1.0;" x1="253" x2="253" y1="272.9336" y2="292.9336"/><polygon fill="#2C84FA" points="249,282.9336,253,292.9336,257,282.9336,253,286.9336" style="stroke:#2C84FA;stroke-width:1.0;"/><line style="stroke:#2C84FA;stroke-width:1.0;" x1="253" x2="253" y1="168.9219" y2="188.9219"/><polygon fill="#2C84FA" points="249,178.9219,253,188.9219,257,178.9219,253,182.9219" style="stroke:#2C84FA;stroke-width:1.0;"/><line style="stroke:#2C84FA;stroke-width:1.0;" x1="253" x2="253" y1="68.6094" y2="133.8281"/><polygon fill="#2C84FA" points="249,123.8281,253,133.8281,257,123.8281,253,127.8281" style="stroke:#2C84FA;stroke-width:1.0;"/><line style="stroke:#2C84FA;stroke-width:1.0;" x1="253" x2="253" y1="316.9336" y2="348.9336"/><polygon fill="#2C84FA" points="249,338.9336,253,348.9336,257,338.9336,253,342.9336" style="stroke:#2C84FA;stroke-width:1.0;"/><line style="stroke:#2C84FA;stroke-width:1.0;" x1="253" x2="253" y1="384.0273" y2="404.0273"/><polygon fill="#2C84FA" points="249,394.0273,253,404.0273,257,394.0273,253,398.0273" style="stroke:#2C84FA;stroke-width:1.0;"/><line style="stroke:#2C84FA;stroke-width:1.0;" x1="253" x2="253" y1="469.3086" y2="489.3086"/><polygon fill="#2C84FA" points="249,479.3086,253,489.3086,257,479.3086,253,483.3086" style="stroke:#2C84FA;stroke-width:1.0;"/><line style="stroke:#2C84FA;stroke-width:1.0;" x1="253" x2="253" y1="539.4961" y2="559.4961"/><polygon fill="#2C84FA" points="249,549.4961,253,559.4961,257,549.4961,253,553.4961" style="stroke:#2C84FA;stroke-width:1.0;"/><line style="stroke:#2C84FA;stroke-width:1.0;" x1="253" x2="253" y1="639.8711" y2="659.8711"/><polygon fill="#2C84FA" points="249,649.8711,253,659.8711,257,649.8711,253,653.8711" style="stroke:#2C84FA;stroke-width:1.0;"/><line style="stroke:#2C84FA;stroke-width:1.0;" x1="157.5" x2="147.5" y1="757.1523" y2="757.1523"/><line style="stroke:#2C84FA;stroke-width:1.0;" x1="147.5" x2="147.5" y1="757.1523" y2="779.1523"/><polygon fill="#2C84FA" points="143.5,769.1523,147.5,779.1523,151.5,769.1523,147.5,773.1523" style="stroke:#2C84FA;stroke-width:1.0;"/><line style="stroke:#2C84FA;stroke-width:1.0;" x1="348.5" x2="358.5" y1="757.1523" y2="757.1523"/><line style="stroke:#2C84FA;stroke-width:1.0;" x1="358.5" x2="358.5" y1="757.1523" y2="779.1523"/><polygon fill="#2C84FA" points="354.5,769.1523,358.5,779.1523,362.5,769.1523,358.5,773.1523" style="stroke:#2C84FA;stroke-width:1.0;"/><line style="stroke:#2C84FA;stroke-width:1.0;" x1="147.5" x2="147.5" y1="814.2461" y2="847.3398"/><line style="stroke:#2C84FA;stroke-width:1.0;" x1="147.5" x2="241" y1="847.3398" y2="847.3398"/><polygon fill="#2C84FA" points="231,843.3398,241,847.3398,231,851.3398,235,847.3398" style="stroke:#2C84FA;stroke-width:1.0;"/><line style="stroke:#2C84FA;stroke-width:1.0;" x1="358.5" x2="358.5" y1="829.3398" y2="847.3398"/><line style="stroke:#2C84FA;stroke-width:1.0;" x1="358.5" x2="265" y1="847.3398" y2="847.3398"/><polygon fill="#2C84FA" points="275,843.3398,265,847.3398,275,851.3398,271,847.3398" style="stroke:#2C84FA;stroke-width:1.0;"/><line style="stroke:#2C84FA;stroke-width:1.0;" x1="253" x2="253" y1="725.1523" y2="745.1523"/><polygon fill="#2C84FA" points="249,735.1523,253,745.1523,257,735.1523,253,739.1523" style="stroke:#2C84FA;stroke-width:1.0;"/><line style="stroke:#2C84FA;stroke-width:1.0;" x1="112" x2="112" y1="967.1992" y2="987.1992"/><polygon fill="#2C84FA" points="108,977.1992,112,987.1992,116,977.1992,112,981.1992" style="stroke:#2C84FA;stroke-width:1.0;"/><line style="stroke:#2C84FA;stroke-width:1.0;" x1="60" x2="50" y1="1054.293" y2="1054.293"/><line style="stroke:#2C84FA;stroke-width:1.0;" x1="50" x2="50" y1="1054.293" y2="1076.293"/><polygon fill="#2C84FA" points="46,1066.293,50,1076.293,54,1066.293,50,1070.293" style="stroke:#2C84FA;stroke-width:1.0;"/><line style="stroke:#2C84FA;stroke-width:1.0;" x1="164" x2="174" y1="1054.293" y2="1054.293"/><line style="stroke:#2C84FA;stroke-width:1.0;" x1="174" x2="174" y1="1054.293" y2="1076.293"/><polygon fill="#2C84FA" points="170,1066.293,174,1076.293,178,1066.293,174,1070.293" style="stroke:#2C84FA;stroke-width:1.0;"/><line style="stroke:#2C84FA;stroke-width:1.0;" x1="174" x2="174" y1="1126.4805" y2="1131.4805"/><line style="stroke:#2C84FA;stroke-width:1.0;" x1="174" x2="253" y1="1131.4805" y2="1131.4805"/><line style="stroke:#2C84FA;stroke-width:1.0;" x1="253" x2="253" y1="1131.4805" y2="1146.4805"/><polygon fill="#2C84FA" points="249,1136.4805,253,1146.4805,257,1136.4805,253,1140.4805" style="stroke:#2C84FA;stroke-width:1.0;"/><line style="stroke:#2C84FA;stroke-width:1.0;" x1="112" x2="112" y1="1022.293" y2="1042.293"/><polygon fill="#2C84FA" points="108,1032.293,112,1042.293,116,1032.293,112,1036.293" style="stroke:#2C84FA;stroke-width:1.0;"/><line style="stroke:#2C84FA;stroke-width:1.0;" x1="165" x2="112" y1="893.1758" y2="893.1758"/><line style="stroke:#2C84FA;stroke-width:1.0;" x1="112" x2="112" y1="893.1758" y2="917.0117"/><polygon fill="#2C84FA" points="108,907.0117,112,917.0117,116,907.0117,112,911.0117" style="stroke:#2C84FA;stroke-width:1.0;"/><line style="stroke:#2C84FA;stroke-width:1.0;" x1="341" x2="394" y1="893.1758" y2="893.1758"/><line style="stroke:#2C84FA;stroke-width:1.0;" x1="394" x2="394" y1="893.1758" y2="917.0117"/><polygon fill="#2C84FA" points="390,907.0117,394,917.0117,398,907.0117,394,911.0117" style="stroke:#2C84FA;stroke-width:1.0;"/><line style="stroke:#2C84FA;stroke-width:1.0;" x1="253" x2="253" y1="859.3398" y2="879.3398"/><polygon fill="#2C84FA" points="249,869.3398,253,879.3398,257,869.3398,253,873.3398" style="stroke:#2C84FA;stroke-width:1.0;"/><!--MD5=[f4615db751da879513f82db5d5c1f8a7]
@startuml "Attacco nell'Infosfera"
title "Attacco nell'Infosfera"
skinparam defaultFontName Oxanium
skinparam activity {
  StartColor #0fff50
  BarColor #2c84fa
  EndColor #e949f5
  BorderColor #2c84fa
  ArrowColor #2c84fa
  FontName Oxanium
}
start
group Determina \ni dadi danno
:Dadi danno del neuroprocessore come standard;
if (attaccanti multipli?) then (<color:#f2f230> sì)
:aggiungi un dado per ogni attaccante;
else (<color:#f2f230> no)
endif
end group
:Fai un tiro;
:Seleziona un attaccante e
ricorda il risultato del suo tiro
(attacco al neuroprocessore);
:aggiungi i dadi
di attivazione software;
note right
Attivazione del software
dell'attaccante selezionato
endnote 
:eseguire un tiro aggiuntivo
di dadi danno software
e aggiungi il risultato
all'attacco al neuroprocessore;
:Sottrai il valore
di armatura INF dell'avversario
dal risultato;
note right
Attivazione
software nodo
endnote
if (PF del nodo minori o uguali a zero?) then (<color:#f2f230> sì)
#0fff50 :prendi il controllo del nodo;
else (<color:#f2f230> no)
  :Sottrai i punti danno
  dai PF __effettivi__ del nodo.;
note right
Attivazione
software nodo
endnote
endif
if (numero di punti danno rimanenti
    maggiori di zero?) then (<color:#f2f230> sì)
:sottrai il totale rimanente di
punti danno dall'INF del nodo;
note right
Attivazione
software nodo
endnote
:Esegui una prova di danno critico;
if (Prova superata?) then (<color:#f2f230> sì)
  end
else (<color:#f2f230> no)
  :applica gli effetti 
  dei danni critici;
  note right
  Attivazione
  software nodo
  endnote
endif
else (<color:#f2f230> no)
 end
endif
end
@enduml

PlantUML version 1.2022.7(Mon Aug 22 19:01:30 CEST 2022)
(GPL source distribution)
Java Runtime: Java(TM) SE Runtime Environment
JVM: Java HotSpot(TM) 64-Bit Server VM
Default Encoding: Cp1252
Language: it
Country: IT
--></g></svg>