<?xml version="1.0" encoding="UTF-8" standalone="no"?><svg xmlns="http://www.w3.org/2000/svg" xmlns:xlink="http://www.w3.org/1999/xlink" contentStyleType="text/css" height="809px" preserveAspectRatio="none" style="width:662px;height:809px;background:#FFFFFF;" version="1.1" viewBox="0 0 662 809" width="662px" zoomAndPan="magnify"><defs/><g><rect fill="none" height="27.6094" id="_title" style="stroke:none;stroke-width:1.0;" width="89" x="285.25" y="15"/><text fill="#000000" font-family="Oxanium" font-size="14" font-weight="bold" lengthAdjust="spacing" textLength="79" x="290.25" y="34.5332">Attacco ICE</text><ellipse cx="301.5" cy="58.6094" fill="#0FFF50" rx="10" ry="10" style="stroke:#222222;stroke-width:1.0;"/><path d="M373.5,84.8047 L373.5,102.1563 L353.5,106.1563 L373.5,110.1563 L373.5,127.5078 A0,0 0 0 0 373.5,127.5078 L509.5,127.5078 A0,0 0 0 0 509.5,127.5078 L509.5,94.8047 L499.5,84.8047 L373.5,84.8047 A0,0 0 0 0 373.5,84.8047 " fill="#FEFFDD" style="stroke:#181818;stroke-width:0.5;"/><path d="M499.5,84.8047 L499.5,94.8047 L509.5,94.8047 L499.5,84.8047 " fill="#FEFFDD" style="stroke:#181818;stroke-width:0.5;"/><text fill="#000000" font-family="Oxanium" font-size="13" lengthAdjust="spacing" textLength="115" x="379.5" y="103.2998">Attivazione software</text><text fill="#000000" font-family="Oxanium" font-size="13" lengthAdjust="spacing" textLength="61" x="379.5" y="119.6514">dell'hacker</text><rect fill="#F1F1F1" height="35.0938" rx="12.5" ry="12.5" style="stroke:#2C84FA;stroke-width:0.5;" width="104" x="249.5" y="88.6094"/><text fill="#000000" font-family="Oxanium" font-size="12" lengthAdjust="spacing" textLength="84" x="259.5" y="111.0664">Tira il dado ICE</text><rect fill="#F1F1F1" height="50.1875" rx="12.5" ry="12.5" style="stroke:#2C84FA;stroke-width:0.5;" width="204" x="199.5" y="147.5078"/><text fill="#000000" font-family="Oxanium" font-size="12" lengthAdjust="spacing" textLength="184" x="209.5" y="169.9648">Sottrai l'armatura di INF dell'haker</text><text fill="#000000" font-family="Oxanium" font-size="12" lengthAdjust="spacing" textLength="97" x="209.5" y="185.0586">al risultato del tiro</text><polygon fill="#F1F1F1" points="209,217.6953,394,217.6953,406,229.6953,394,241.6953,209,241.6953,197,229.6953,209,217.6953" style="stroke:#2C84FA;stroke-width:0.5;"/><text fill="#000000" font-family="Oxanium" font-size="11" lengthAdjust="spacing" textLength="185" x="209" y="234.1963">PF dell'hacker inferiori o uguali a zero?</text><text fill="#F2F230" font-family="Oxanium" font-size="11" lengthAdjust="spacing" textLength="8" x="189" y="227.2783">sì</text><text fill="#F2F230" font-family="Oxanium" font-size="11" lengthAdjust="spacing" textLength="12" x="409" y="227.2783">no</text><rect fill="#E949F5" height="50.1875" rx="12.5" ry="12.5" style="stroke:#2C84FA;stroke-width:0.5;" width="171" x="101.5" y="251.6953"/><text fill="#000000" font-family="Oxanium" font-size="12" lengthAdjust="spacing" textLength="148" x="111.5" y="274.1523">L'hacker non può muoversi</text><text fill="#000000" font-family="Oxanium" font-size="12" lengthAdjust="spacing" textLength="142" x="111.5" y="289.2461">nella rete o disconnettersi</text><path d="M514.5,255.4375 L514.5,272.7891 L494.5,276.7891 L514.5,280.7891 L514.5,298.1406 A0,0 0 0 0 514.5,298.1406 L650.5,298.1406 A0,0 0 0 0 650.5,298.1406 L650.5,265.4375 L640.5,255.4375 L514.5,255.4375 A0,0 0 0 0 514.5,255.4375 " fill="#FEFFDD" style="stroke:#181818;stroke-width:0.5;"/><path d="M640.5,255.4375 L640.5,265.4375 L650.5,265.4375 L640.5,255.4375 " fill="#FEFFDD" style="stroke:#181818;stroke-width:0.5;"/><text fill="#000000" font-family="Oxanium" font-size="13" lengthAdjust="spacing" textLength="115" x="520.5" y="273.9326">Attivazione software</text><text fill="#000000" font-family="Oxanium" font-size="13" lengthAdjust="spacing" textLength="61" x="520.5" y="290.2842">dell'hacker</text><rect fill="#F1F1F1" height="50.1875" rx="12.5" ry="12.5" style="stroke:#2C84FA;stroke-width:0.5;" width="157" x="337.5" y="251.6953"/><text fill="#000000" font-family="Oxanium" font-size="12" lengthAdjust="spacing" textLength="109" x="347.5" y="274.1523">Sottrai i punti danno</text><text fill="#000000" font-family="Oxanium" font-size="12" lengthAdjust="spacing" textLength="35" x="347.5" y="289.2461">dai PF</text><text fill="#000000" font-family="Oxanium" font-size="12" lengthAdjust="spacing" text-decoration="underline" textLength="37" x="385.5" y="289.2461">effettivi</text><text fill="#000000" font-family="Oxanium" font-size="12" lengthAdjust="spacing" textLength="59" x="425.5" y="289.2461">dell'hacker</text><polygon fill="#F1F1F1" points="301.5,307.8828,313.5,319.8828,301.5,331.8828,289.5,319.8828,301.5,307.8828" style="stroke:#2C84FA;stroke-width:0.5;"/><polygon fill="#F1F1F1" points="194.5,351.8828,408.5,351.8828,420.5,363.8828,408.5,375.8828,194.5,375.8828,182.5,363.8828,194.5,351.8828" style="stroke:#2C84FA;stroke-width:0.5;"/><text fill="#000000" font-family="Oxanium" font-size="11" lengthAdjust="spacing" textLength="214" x="194.5" y="368.3838">punti danno maggiori al livello PF dell'hacker?</text><text fill="#F2F230" font-family="Oxanium" font-size="11" lengthAdjust="spacing" textLength="8" x="174.5" y="361.4658">sì</text><text fill="#F2F230" font-family="Oxanium" font-size="11" lengthAdjust="spacing" textLength="12" x="423.5" y="361.4658">no</text><path d="M285,389.625 L285,406.9766 L265,410.9766 L285,414.9766 L285,432.3281 A0,0 0 0 0 285,432.3281 L421,432.3281 A0,0 0 0 0 421,432.3281 L421,399.625 L411,389.625 L285,389.625 A0,0 0 0 0 285,389.625 " fill="#FEFFDD" style="stroke:#181818;stroke-width:0.5;"/><path d="M411,389.625 L411,399.625 L421,399.625 L411,389.625 " fill="#FEFFDD" style="stroke:#181818;stroke-width:0.5;"/><text fill="#000000" font-family="Oxanium" font-size="13" lengthAdjust="spacing" textLength="115" x="291" y="408.1201">Attivazione software</text><text fill="#000000" font-family="Oxanium" font-size="13" lengthAdjust="spacing" textLength="61" x="291" y="424.4717">dell'hacker</text><rect fill="#F1F1F1" height="50.1875" rx="12.5" ry="12.5" style="stroke:#2C84FA;stroke-width:0.5;" width="254" x="11" y="385.8828"/><text fill="#000000" font-family="Oxanium" font-size="12" lengthAdjust="spacing" textLength="234" x="21" y="408.3398">sottrai la quantità rimanente di punti danno</text><text fill="#000000" font-family="Oxanium" font-size="12" lengthAdjust="spacing" textLength="103" x="21" y="423.4336">dall'INF dell'hacker</text><rect fill="#F1F1F1" height="35.0938" rx="12.5" ry="12.5" style="stroke:#2C84FA;stroke-width:0.5;" width="202" x="37" y="456.0703"/><text fill="#000000" font-family="Oxanium" font-size="12" lengthAdjust="spacing" textLength="182" x="47" y="478.5273">Esegui una prova di danno critico</text><polygon fill="#F1F1F1" points="98,511.1641,178,511.1641,190,523.1641,178,535.1641,98,535.1641,86,523.1641,98,511.1641" style="stroke:#2C84FA;stroke-width:0.5;"/><text fill="#000000" font-family="Oxanium" font-size="11" lengthAdjust="spacing" textLength="80" x="98" y="527.665">Prova superata?</text><text fill="#F2F230" font-family="Oxanium" font-size="11" lengthAdjust="spacing" textLength="8" x="78" y="520.7471">sì</text><text fill="#F2F230" font-family="Oxanium" font-size="11" lengthAdjust="spacing" textLength="12" x="193" y="520.7471">no</text><ellipse cx="68.5" cy="555.1641" fill="none" rx="10" ry="10" style="stroke:#E949F5;stroke-width:1.5;"/><line style="stroke:#E949F5;stroke-width:2.5;" x1="62.3128" x2="74.6872" y1="548.9769" y2="561.3512"/><line style="stroke:#E949F5;stroke-width:2.5;" x1="74.6872" x2="62.3128" y1="548.9769" y2="561.3512"/><path d="M284,548.9063 L284,566.2578 L264,570.2578 L284,574.2578 L284,591.6094 A0,0 0 0 0 284,591.6094 L420,591.6094 A0,0 0 0 0 420,591.6094 L420,558.9063 L410,548.9063 L284,548.9063 A0,0 0 0 0 284,548.9063 " fill="#FEFFDD" style="stroke:#181818;stroke-width:0.5;"/><path d="M410,548.9063 L410,558.9063 L420,558.9063 L410,548.9063 " fill="#FEFFDD" style="stroke:#181818;stroke-width:0.5;"/><text fill="#000000" font-family="Oxanium" font-size="13" lengthAdjust="spacing" textLength="115" x="290" y="567.4014">Attivazione software</text><text fill="#000000" font-family="Oxanium" font-size="13" lengthAdjust="spacing" textLength="61" x="290" y="583.7529">dell'hacker</text><rect fill="#F1F1F1" height="50.1875" rx="12.5" ry="12.5" style="stroke:#2C84FA;stroke-width:0.5;" width="113" x="151" y="545.1641"/><text fill="#000000" font-family="Oxanium" font-size="12" lengthAdjust="spacing" textLength="88" x="161" y="567.6211">applica gli effetti</text><text fill="#000000" font-family="Oxanium" font-size="12" lengthAdjust="spacing" textLength="90" x="164" y="582.7148">del danno critico</text><rect fill="#F1F1F1" height="50.1875" rx="12.5" ry="12.5" style="stroke:#2C84FA;stroke-width:0.5;" width="188" x="113.5" y="664.2695"/><text fill="#000000" font-family="Oxanium" font-size="12" lengthAdjust="spacing" textLength="160" x="123.5" y="686.7266">sottrarre dalla PSI dell'hacker</text><text fill="#000000" font-family="Oxanium" font-size="12" lengthAdjust="spacing" textLength="168" x="123.5" y="701.8203">gli stessi punti sottratti alla INF</text><polygon fill="#F1F1F1" points="185.5,615.3516,229.5,615.3516,241.5,627.3516,229.5,639.3516,185.5,639.3516,173.5,627.3516,185.5,615.3516" style="stroke:#2C84FA;stroke-width:0.5;"/><text fill="#F2F230" font-family="Oxanium" font-size="11" lengthAdjust="spacing" textLength="8" x="214.5" y="650.7705">sì</text><text fill="#000000" font-family="Oxanium" font-size="11" lengthAdjust="spacing" textLength="44" x="185.5" y="631.8525">Black ICE</text><polygon fill="#F1F1F1" points="207.5,734.457,219.5,746.457,207.5,758.457,195.5,746.457,207.5,734.457" style="stroke:#2C84FA;stroke-width:0.5;"/><ellipse cx="465" cy="395.8828" fill="none" rx="10" ry="10" style="stroke:#E949F5;stroke-width:1.5;"/><line style="stroke:#E949F5;stroke-width:2.5;" x1="458.8128" x2="471.1872" y1="389.6956" y2="402.07"/><line style="stroke:#E949F5;stroke-width:2.5;" x1="471.1872" x2="458.8128" y1="389.6956" y2="402.07"/><ellipse cx="301.5" cy="788.457" fill="none" rx="10" ry="10" style="stroke:#E949F5;stroke-width:1.5;"/><line style="stroke:#E949F5;stroke-width:2.5;" x1="295.3128" x2="307.6872" y1="782.2698" y2="794.6442"/><line style="stroke:#E949F5;stroke-width:2.5;" x1="307.6872" x2="295.3128" y1="782.2698" y2="794.6442"/><line style="stroke:#2C84FA;stroke-width:1.0;" x1="301.5" x2="301.5" y1="68.6094" y2="88.6094"/><polygon fill="#2C84FA" points="297.5,78.6094,301.5,88.6094,305.5,78.6094,301.5,82.6094" style="stroke:#2C84FA;stroke-width:1.0;"/><line style="stroke:#2C84FA;stroke-width:1.0;" x1="301.5" x2="301.5" y1="123.7031" y2="147.5078"/><polygon fill="#2C84FA" points="297.5,137.5078,301.5,147.5078,305.5,137.5078,301.5,141.5078" style="stroke:#2C84FA;stroke-width:1.0;"/><line style="stroke:#2C84FA;stroke-width:1.0;" x1="197" x2="187" y1="229.6953" y2="229.6953"/><line style="stroke:#2C84FA;stroke-width:1.0;" x1="187" x2="187" y1="229.6953" y2="251.6953"/><polygon fill="#2C84FA" points="183,241.6953,187,251.6953,191,241.6953,187,245.6953" style="stroke:#2C84FA;stroke-width:1.0;"/><line style="stroke:#2C84FA;stroke-width:1.0;" x1="406" x2="416" y1="229.6953" y2="229.6953"/><line style="stroke:#2C84FA;stroke-width:1.0;" x1="416" x2="416" y1="229.6953" y2="251.6953"/><polygon fill="#2C84FA" points="412,241.6953,416,251.6953,420,241.6953,416,245.6953" style="stroke:#2C84FA;stroke-width:1.0;"/><line style="stroke:#2C84FA;stroke-width:1.0;" x1="187" x2="187" y1="301.8828" y2="319.8828"/><line style="stroke:#2C84FA;stroke-width:1.0;" x1="187" x2="289.5" y1="319.8828" y2="319.8828"/><polygon fill="#2C84FA" points="279.5,315.8828,289.5,319.8828,279.5,323.8828,283.5,319.8828" style="stroke:#2C84FA;stroke-width:1.0;"/><line style="stroke:#2C84FA;stroke-width:1.0;" x1="416" x2="416" y1="301.8828" y2="319.8828"/><line style="stroke:#2C84FA;stroke-width:1.0;" x1="416" x2="313.5" y1="319.8828" y2="319.8828"/><polygon fill="#2C84FA" points="323.5,315.8828,313.5,319.8828,323.5,323.8828,319.5,319.8828" style="stroke:#2C84FA;stroke-width:1.0;"/><line style="stroke:#2C84FA;stroke-width:1.0;" x1="301.5" x2="301.5" y1="197.6953" y2="217.6953"/><polygon fill="#2C84FA" points="297.5,207.6953,301.5,217.6953,305.5,207.6953,301.5,211.6953" style="stroke:#2C84FA;stroke-width:1.0;"/><line style="stroke:#2C84FA;stroke-width:1.0;" x1="138" x2="138" y1="436.0703" y2="456.0703"/><polygon fill="#2C84FA" points="134,446.0703,138,456.0703,142,446.0703,138,450.0703" style="stroke:#2C84FA;stroke-width:1.0;"/><line style="stroke:#2C84FA;stroke-width:1.0;" x1="207.5" x2="207.5" y1="639.3516" y2="664.2695"/><polygon fill="#2C84FA" points="203.5,654.2695,207.5,664.2695,211.5,654.2695,207.5,658.2695" style="stroke:#2C84FA;stroke-width:1.0;"/><line style="stroke:#2C84FA;stroke-width:1.0;" x1="241.5" x2="311.5" y1="627.3516" y2="627.3516"/><polygon fill="#2C84FA" points="307.5,679.3633,311.5,689.3633,315.5,679.3633,311.5,683.3633" style="stroke:#2C84FA;stroke-width:1.0;"/><line style="stroke:#2C84FA;stroke-width:1.0;" x1="311.5" x2="311.5" y1="627.3516" y2="746.457"/><line style="stroke:#2C84FA;stroke-width:1.0;" x1="311.5" x2="219.5" y1="746.457" y2="746.457"/><polygon fill="#2C84FA" points="229.5,742.457,219.5,746.457,229.5,750.457,225.5,746.457" style="stroke:#2C84FA;stroke-width:1.0;"/><line style="stroke:#2C84FA;stroke-width:1.0;" x1="207.5" x2="207.5" y1="714.457" y2="734.457"/><polygon fill="#2C84FA" points="203.5,724.457,207.5,734.457,211.5,724.457,207.5,728.457" style="stroke:#2C84FA;stroke-width:1.0;"/><line style="stroke:#2C84FA;stroke-width:1.0;" x1="207.5" x2="207.5" y1="595.3516" y2="615.3516"/><polygon fill="#2C84FA" points="203.5,605.3516,207.5,615.3516,211.5,605.3516,207.5,609.3516" style="stroke:#2C84FA;stroke-width:1.0;"/><line style="stroke:#2C84FA;stroke-width:1.0;" x1="86" x2="68.5" y1="523.1641" y2="523.1641"/><line style="stroke:#2C84FA;stroke-width:1.0;" x1="68.5" x2="68.5" y1="523.1641" y2="545.1641"/><polygon fill="#2C84FA" points="64.5,535.1641,68.5,545.1641,72.5,535.1641,68.5,539.1641" style="stroke:#2C84FA;stroke-width:1.0;"/><line style="stroke:#2C84FA;stroke-width:1.0;" x1="190" x2="207.5" y1="523.1641" y2="523.1641"/><line style="stroke:#2C84FA;stroke-width:1.0;" x1="207.5" x2="207.5" y1="523.1641" y2="545.1641"/><polygon fill="#2C84FA" points="203.5,535.1641,207.5,545.1641,211.5,535.1641,207.5,539.1641" style="stroke:#2C84FA;stroke-width:1.0;"/><line style="stroke:#2C84FA;stroke-width:1.0;" x1="207.5" x2="207.5" y1="758.457" y2="763.457"/><line style="stroke:#2C84FA;stroke-width:1.0;" x1="207.5" x2="301.5" y1="763.457" y2="763.457"/><line style="stroke:#2C84FA;stroke-width:1.0;" x1="301.5" x2="301.5" y1="763.457" y2="778.457"/><polygon fill="#2C84FA" points="297.5,768.457,301.5,778.457,305.5,768.457,301.5,772.457" style="stroke:#2C84FA;stroke-width:1.0;"/><line style="stroke:#2C84FA;stroke-width:1.0;" x1="138" x2="138" y1="491.1641" y2="511.1641"/><polygon fill="#2C84FA" points="134,501.1641,138,511.1641,142,501.1641,138,505.1641" style="stroke:#2C84FA;stroke-width:1.0;"/><line style="stroke:#2C84FA;stroke-width:1.0;" x1="182.5" x2="138" y1="363.8828" y2="363.8828"/><line style="stroke:#2C84FA;stroke-width:1.0;" x1="138" x2="138" y1="363.8828" y2="385.8828"/><polygon fill="#2C84FA" points="134,375.8828,138,385.8828,142,375.8828,138,379.8828" style="stroke:#2C84FA;stroke-width:1.0;"/><line style="stroke:#2C84FA;stroke-width:1.0;" x1="420.5" x2="465" y1="363.8828" y2="363.8828"/><line style="stroke:#2C84FA;stroke-width:1.0;" x1="465" x2="465" y1="363.8828" y2="385.8828"/><polygon fill="#2C84FA" points="461,375.8828,465,385.8828,469,375.8828,465,379.8828" style="stroke:#2C84FA;stroke-width:1.0;"/><line style="stroke:#2C84FA;stroke-width:1.0;" x1="301.5" x2="301.5" y1="331.8828" y2="351.8828"/><polygon fill="#2C84FA" points="297.5,341.8828,301.5,351.8828,305.5,341.8828,301.5,345.8828" style="stroke:#2C84FA;stroke-width:1.0;"/><!--MD5=[d4b8301ad38924db2acb9859b04ba1d3]
@startuml "Attacco ICE"
title "Attacco ICE"
skinparam defaultFontName Oxanium
skinparam activity {
  StartColor #0fff50
  BarColor #2c84fa
  EndColor #e949f5
  BorderColor #2c84fa
  ArrowColor #2c84fa
  FontName Oxanium
}
start
:Tira il dado ICE;
note right
Attivazione software
dell'hacker
endnote 
:Sottrai l'armatura di INF dell'haker
al risultato del tiro;

if (PF dell'hacker inferiori o uguali a zero?) then (<color:#f2f230> sì)
#e949f5 :L'hacker non può muoversi \nnella rete o disconnettersi;
else (<color:#f2f230> no)
 :Sottrai i punti danno
 dai PF __effettivi__ dell'hacker;
 note right
Attivazione software
dell'hacker
 endnote
endif
if (punti danno maggiori al livello PF dell'hacker?) then (<color:#f2f230> sì)
:sottrai la quantità rimanente di punti danno
dall'INF dell'hacker;
note right
  Attivazione software
  dell'hacker
endnote
:Esegui una prova di danno critico;
if (Prova superata?) then (<color:#f2f230> sì)
  end
else (<color:#f2f230> no)
  :applica gli effetti \n del danno critico;
  note right
  Attivazione software
  dell'hacker
  endnote
  if (Black ICE) then (<color:#f2f230> sì)
  :sottrarre dalla PSI dell'hacker 
  gli stessi punti sottratti alla INF;
  endif
endif
else (<color:#f2f230> no)
 end
endif
end
@enduml

PlantUML version 1.2022.7(Mon Aug 22 19:01:30 CEST 2022)
(GPL source distribution)
Java Runtime: Java(TM) SE Runtime Environment
JVM: Java HotSpot(TM) 64-Bit Server VM
Default Encoding: Cp1252
Language: it
Country: IT
--></g></svg>