<?xml version="1.0" encoding="UTF-8" standalone="no"?><svg xmlns="http://www.w3.org/2000/svg" xmlns:xlink="http://www.w3.org/1999/xlink" contentStyleType="text/css" height="1160px" preserveAspectRatio="none" style="width:783px;height:1160px;background:#FFFFFF;" version="1.1" viewBox="0 0 783 1160" width="783px" zoomAndPan="magnify"><defs/><g><rect fill="none" height="27.6094" id="_title" style="stroke:none;stroke-width:1.0;" width="158" x="311.125" y="15"/><text fill="#000000" font-family="Oxanium" font-size="14" font-weight="bold" lengthAdjust="spacing" textLength="148" x="316.125" y="34.5332">Combattimento fisico</text><ellipse cx="424.25" cy="58.6094" fill="#0FFF50" rx="10" ry="10" style="stroke:#222222;stroke-width:1.0;"/><rect fill="#F1F1F1" height="35.0938" rx="12.5" ry="12.5" style="stroke:#2C84FA;stroke-width:0.5;" width="103" x="372.75" y="88.6094"/><text fill="#000000" font-family="Oxanium" font-size="12" lengthAdjust="spacing" textLength="83" x="382.75" y="111.0664">Inizia del round</text><path d="M228.75,196.293 L228.75,238.9961 A0,0 0 0 0 228.75,238.9961 L329.75,238.9961 A0,0 0 0 0 329.75,238.9961 L329.75,221.6445 L349.75,217.6445 L329.75,213.6445 L329.75,206.293 L319.75,196.293 L228.75,196.293 A0,0 0 0 0 228.75,196.293 " fill="#FEFFDD" style="stroke:#181818;stroke-width:0.5;"/><path d="M319.75,196.293 L319.75,206.293 L329.75,206.293 L319.75,196.293 " fill="#FEFFDD" style="stroke:#181818;stroke-width:0.5;"/><text fill="#000000" font-family="Oxanium" font-size="13" lengthAdjust="spacing" textLength="63" x="234.75" y="214.7881">Attivazione</text><text fill="#000000" font-family="Oxanium" font-size="13" lengthAdjust="spacing" textLength="80" x="234.75" y="231.1396">cybermodifica</text><rect fill="#F1F1F1" height="35.0938" rx="12.5" ry="12.5" style="stroke:#2C84FA;stroke-width:0.5;" width="149" x="349.75" y="200.0977"/><text fill="#000000" font-family="Oxanium" font-size="12" lengthAdjust="spacing" textLength="129" x="359.75" y="222.5547">Chiedi una prova di BIO</text><polygon fill="#F1F1F1" points="340.25,258.9961,508.25,258.9961,520.25,272.832,508.25,286.668,340.25,286.668,328.25,272.832,340.25,258.9961" style="stroke:#2C84FA;stroke-width:0.5;"/><text fill="#000000" font-family="Oxanium" font-size="11" lengthAdjust="spacing" textLength="138" x="340.25" y="270.415">Prova superata e il giocatore</text><text fill="#000000" font-family="Oxanium" font-size="11" lengthAdjust="spacing" textLength="168" x="340.25" y="284.251">ha un posto sicuro dove rifugiarsi?</text><text fill="#F2F230" font-family="Oxanium" font-size="11" lengthAdjust="spacing" textLength="8" x="320.25" y="270.415">sì</text><text fill="#F2F230" font-family="Oxanium" font-size="11" lengthAdjust="spacing" textLength="12" x="523.25" y="270.415">no</text><rect fill="#F1F1F1" height="35.0938" rx="12.5" ry="12.5" style="stroke:#2C84FA;stroke-width:0.5;" width="240" x="183" y="296.668"/><text fill="#000000" font-family="Oxanium" font-size="12" lengthAdjust="spacing" textLength="220" x="193" y="319.125">Il giocatore abbandona il combattimento</text><ellipse cx="303" cy="362.7617" fill="none" rx="11" ry="11" style="stroke:#222222;stroke-width:1.0;"/><ellipse cx="303" cy="362.7617" fill="#222222" rx="6" ry="6" style="stroke:#111111;stroke-width:1.0;"/><rect fill="#F1F1F1" height="35.0938" rx="12.5" ry="12.5" style="stroke:#2C84FA;stroke-width:0.5;" width="205" x="443" y="296.668"/><text fill="#000000" font-family="Oxanium" font-size="12" lengthAdjust="spacing" textLength="185" x="453" y="319.125">Il giocatore continua a combattere</text><polygon fill="#F1F1F1" points="360.25,143.7031,488.25,143.7031,500.25,157.5391,488.25,171.375,360.25,171.375,348.25,157.5391,360.25,143.7031" style="stroke:#2C84FA;stroke-width:0.5;"/><text fill="#F2F230" font-family="Oxanium" font-size="11" lengthAdjust="spacing" textLength="8" x="431.25" y="182.7939">sì</text><text fill="#000000" font-family="Oxanium" font-size="11" lengthAdjust="spacing" textLength="81" x="360.25" y="155.1221">Il giocatore vuole</text><text fill="#000000" font-family="Oxanium" font-size="11" lengthAdjust="spacing" textLength="128" x="360.25" y="168.958">ritirarsi dal combattimento?</text><polygon fill="#F1F1F1" points="424.25,393.7617,436.25,405.7617,424.25,417.7617,412.25,405.7617,424.25,393.7617" style="stroke:#2C84FA;stroke-width:0.5;"/><polygon fill="#F1F1F1" points="319.75,437.7617,528.75,437.7617,540.75,451.5977,528.75,465.4336,319.75,465.4336,307.75,451.5977,319.75,437.7617" style="stroke:#2C84FA;stroke-width:0.5;"/><text fill="#000000" font-family="Oxanium" font-size="11" lengthAdjust="spacing" textLength="209" x="319.75" y="449.1807">il personaggio può essere colto di sorpresa</text><text fill="#000000" font-family="Oxanium" font-size="11" lengthAdjust="spacing" textLength="171" x="331.75" y="463.0166">e vuole agire prima degli avversari?</text><text fill="#F2F230" font-family="Oxanium" font-size="11" lengthAdjust="spacing" textLength="8" x="299.75" y="449.1807">sì</text><text fill="#F2F230" font-family="Oxanium" font-size="11" lengthAdjust="spacing" textLength="12" x="543.75" y="449.1807">no</text><path d="M63,475.4336 L63,518.1367 A0,0 0 0 0 63,518.1367 L164,518.1367 A0,0 0 0 0 164,518.1367 L164,500.7852 L184,496.7852 L164,492.7852 L164,485.4336 L154,475.4336 L63,475.4336 A0,0 0 0 0 63,475.4336 " fill="#FEFFDD" style="stroke:#181818;stroke-width:0.5;"/><path d="M154,475.4336 L154,485.4336 L164,485.4336 L154,475.4336 " fill="#FEFFDD" style="stroke:#181818;stroke-width:0.5;"/><text fill="#000000" font-family="Oxanium" font-size="13" lengthAdjust="spacing" textLength="63" x="69" y="493.9287">Attivazione</text><text fill="#000000" font-family="Oxanium" font-size="13" lengthAdjust="spacing" textLength="80" x="69" y="510.2803">cybermodifica</text><rect fill="#F1F1F1" height="35.0938" rx="12.5" ry="12.5" style="stroke:#2C84FA;stroke-width:0.5;" width="149" x="184" y="479.2383"/><text fill="#000000" font-family="Oxanium" font-size="12" lengthAdjust="spacing" textLength="129" x="194" y="501.6953">Chiedi una prova di BIO</text><polygon fill="#F1F1F1" points="205,545.6211,312,545.6211,324,557.6211,312,569.6211,205,569.6211,193,557.6211,205,545.6211" style="stroke:#2C84FA;stroke-width:0.5;"/><text fill="#000000" font-family="Oxanium" font-size="11" lengthAdjust="spacing" textLength="107" x="205" y="562.1221">Prova di BIO passata?</text><text fill="#F2F230" font-family="Oxanium" font-size="11" lengthAdjust="spacing" textLength="8" x="185" y="555.2041">sì</text><text fill="#F2F230" font-family="Oxanium" font-size="11" lengthAdjust="spacing" textLength="12" x="327" y="555.2041">no</text><rect fill="#F1F1F1" height="35.0938" rx="12.5" ry="12.5" style="stroke:#2C84FA;stroke-width:0.5;" width="256" x="11" y="579.6211"/><text fill="#000000" font-family="Oxanium" font-size="12" lengthAdjust="spacing" textLength="236" x="21" y="602.0781">Il personaggio agisce prima degli avversari</text><rect fill="#F1F1F1" height="50.1875" rx="12.5" ry="12.5" style="stroke:#2C84FA;stroke-width:0.5;" width="182" x="287" y="579.6211"/><text fill="#000000" font-family="Oxanium" font-size="12" lengthAdjust="spacing" textLength="130" x="297" y="602.0781">Tutte le azioni del round</text><text fill="#000000" font-family="Oxanium" font-size="12" lengthAdjust="spacing" textLength="159" x="300" y="617.1719">avvengono simultaneamente</text><polygon fill="#F1F1F1" points="258.5,635.8086,270.5,647.8086,258.5,659.8086,246.5,647.8086,258.5,635.8086" style="stroke:#2C84FA;stroke-width:0.5;"/><rect fill="#F1F1F1" height="50.1875" rx="12.5" ry="12.5" style="stroke:#2C84FA;stroke-width:0.5;" width="182" x="499" y="475.4336"/><text fill="#000000" font-family="Oxanium" font-size="12" lengthAdjust="spacing" textLength="130" x="509" y="497.8906">Tutte le azioni del round</text><text fill="#000000" font-family="Oxanium" font-size="12" lengthAdjust="spacing" textLength="159" x="512" y="512.9844">avvengono simultaneamente</text><polygon fill="#F1F1F1" points="424.25,665.8086,436.25,677.8086,424.25,689.8086,412.25,677.8086,424.25,665.8086" style="stroke:#2C84FA;stroke-width:0.5;"/><rect fill="#F1F1F1" height="35.0938" rx="12.5" ry="12.5" style="stroke:#2C84FA;stroke-width:0.5;" width="177" x="335.75" y="709.8086"/><text fill="#000000" font-family="Oxanium" font-size="12" lengthAdjust="spacing" textLength="157" x="345.75" y="732.2656">Il personaggio può muoversi</text><rect fill="#F1F1F1" height="35.0938" rx="12.5" ry="12.5" style="stroke:#2C84FA;stroke-width:0.5;" width="336" x="256.25" y="764.9023"/><text fill="#000000" font-family="Oxanium" font-size="12" lengthAdjust="spacing" textLength="316" x="266.25" y="787.3594">Un personaggio può eseguire un attacco o un'altra azione</text><polygon fill="#F1F1F1" points="380.25,819.9961,468.25,819.9961,480.25,831.9961,468.25,843.9961,380.25,843.9961,368.25,831.9961,380.25,819.9961" style="stroke:#2C84FA;stroke-width:0.5;"/><text fill="#000000" font-family="Oxanium" font-size="11" lengthAdjust="spacing" textLength="88" x="380.25" y="836.4971">Attacco o azione?</text><text fill="#F2F230" font-family="Oxanium" font-size="11" lengthAdjust="spacing" textLength="36" x="332.25" y="829.5791">attacco</text><text fill="#F2F230" font-family="Oxanium" font-size="11" lengthAdjust="spacing" textLength="32" x="483.25" y="829.5791">azione</text><rect fill="#F2F230" height="35.0938" rx="12.5" ry="12.5" style="stroke:#2C84FA;stroke-width:0.5;" width="163" x="126.75" y="853.9961"/><text fill="#000000" font-family="Oxanium" font-size="12" lengthAdjust="spacing" textLength="143" x="136.75" y="876.4531">Salta l'algoritmo di attacco</text><polygon fill="#F1F1F1" points="591.25,853.9961,689.25,853.9961,701.25,865.9961,689.25,877.9961,591.25,877.9961,579.25,865.9961,591.25,853.9961" style="stroke:#2C84FA;stroke-width:0.5;"/><text fill="#000000" font-family="Oxanium" font-size="11" lengthAdjust="spacing" textLength="98" x="591.25" y="870.4971">l'azione è rischiosa?</text><text fill="#F2F230" font-family="Oxanium" font-size="11" lengthAdjust="spacing" textLength="8" x="571.25" y="863.5791">sì</text><text fill="#F2F230" font-family="Oxanium" font-size="11" lengthAdjust="spacing" textLength="12" x="704.25" y="863.5791">no</text><path d="M319.75,887.9961 L319.75,930.6992 A0,0 0 0 0 319.75,930.6992 L420.75,930.6992 A0,0 0 0 0 420.75,930.6992 L420.75,913.3477 L440.75,909.3477 L420.75,905.3477 L420.75,897.9961 L410.75,887.9961 L319.75,887.9961 A0,0 0 0 0 319.75,887.9961 " fill="#FEFFDD" style="stroke:#181818;stroke-width:0.5;"/><path d="M410.75,887.9961 L410.75,897.9961 L420.75,897.9961 L410.75,887.9961 " fill="#FEFFDD" style="stroke:#181818;stroke-width:0.5;"/><text fill="#000000" font-family="Oxanium" font-size="13" lengthAdjust="spacing" textLength="63" x="325.75" y="906.4912">Attivazione</text><text fill="#000000" font-family="Oxanium" font-size="13" lengthAdjust="spacing" textLength="80" x="325.75" y="922.8428">cybermodifica</text><rect fill="#F1F1F1" height="35.0938" rx="12.5" ry="12.5" style="stroke:#2C84FA;stroke-width:0.5;" width="219" x="440.75" y="891.8008"/><text fill="#000000" font-family="Oxanium" font-size="12" lengthAdjust="spacing" textLength="199" x="450.75" y="914.2578">Richiedi un tiro di salvezza adeguato</text><polygon fill="#F1F1F1" points="510.25,950.6992,590.25,950.6992,602.25,962.6992,590.25,974.6992,510.25,974.6992,498.25,962.6992,510.25,950.6992" style="stroke:#2C84FA;stroke-width:0.5;"/><text fill="#000000" font-family="Oxanium" font-size="11" lengthAdjust="spacing" textLength="80" x="510.25" y="967.2002">Prova superata?</text><text fill="#F2F230" font-family="Oxanium" font-size="11" lengthAdjust="spacing" textLength="8" x="490.25" y="960.2822">sì</text><text fill="#F2F230" font-family="Oxanium" font-size="11" lengthAdjust="spacing" textLength="12" x="605.25" y="960.2822">no</text><rect fill="#0FFF50" height="35.0938" rx="12.5" ry="12.5" style="stroke:#2C84FA;stroke-width:0.5;" width="84" x="446.25" y="984.6992"/><text fill="#000000" font-family="Oxanium" font-size="12" font-weight="bold" lengthAdjust="spacing" textLength="64" x="456.25" y="1007.1563">SUCCESSO</text><rect fill="#FF54FF" height="35.0938" rx="12.5" ry="12.5" style="stroke:#2C84FA;stroke-width:0.5;" width="92" x="566.25" y="984.6992"/><text fill="#000000" font-family="Oxanium" font-size="12" font-weight="bold" lengthAdjust="spacing" textLength="72" x="576.25" y="1007.1563">FALLIMENTO</text><polygon fill="#F1F1F1" points="550.25,1025.793,562.25,1037.793,550.25,1049.793,538.25,1037.793,550.25,1025.793" style="stroke:#2C84FA;stroke-width:0.5;"/><rect fill="#0FFF50" height="35.0938" rx="12.5" ry="12.5" style="stroke:#2C84FA;stroke-width:0.5;" width="84" x="688.25" y="887.9961"/><text fill="#000000" font-family="Oxanium" font-size="12" font-weight="bold" lengthAdjust="spacing" textLength="64" x="698.25" y="910.4531">SUCCESSO</text><polygon fill="#F1F1F1" points="640.25,1055.793,652.25,1067.793,640.25,1079.793,628.25,1067.793,640.25,1055.793" style="stroke:#2C84FA;stroke-width:0.5;"/><polygon fill="#F1F1F1" points="424.25,1085.793,436.25,1097.793,424.25,1109.793,412.25,1097.793,424.25,1085.793" style="stroke:#2C84FA;stroke-width:0.5;"/><ellipse cx="424.25" cy="1139.793" fill="none" rx="10" ry="10" style="stroke:#E949F5;stroke-width:1.5;"/><line style="stroke:#E949F5;stroke-width:2.5;" x1="418.0628" x2="430.4372" y1="1133.6058" y2="1145.9802"/><line style="stroke:#E949F5;stroke-width:2.5;" x1="430.4372" x2="418.0628" y1="1133.6058" y2="1145.9802"/><line style="stroke:#2C84FA;stroke-width:1.0;" x1="424.25" x2="424.25" y1="68.6094" y2="88.6094"/><polygon fill="#2C84FA" points="420.25,78.6094,424.25,88.6094,428.25,78.6094,424.25,82.6094" style="stroke:#2C84FA;stroke-width:1.0;"/><line style="stroke:#2C84FA;stroke-width:1.0;" x1="303" x2="303" y1="331.7617" y2="351.7617"/><polygon fill="#2C84FA" points="299,341.7617,303,351.7617,307,341.7617,303,345.7617" style="stroke:#2C84FA;stroke-width:1.0;"/><line style="stroke:#2C84FA;stroke-width:1.0;" x1="328.25" x2="303" y1="272.832" y2="272.832"/><line style="stroke:#2C84FA;stroke-width:1.0;" x1="303" x2="303" y1="272.832" y2="296.668"/><polygon fill="#2C84FA" points="299,286.668,303,296.668,307,286.668,303,290.668" style="stroke:#2C84FA;stroke-width:1.0;"/><line style="stroke:#2C84FA;stroke-width:1.0;" x1="520.25" x2="545.5" y1="272.832" y2="272.832"/><line style="stroke:#2C84FA;stroke-width:1.0;" x1="545.5" x2="545.5" y1="272.832" y2="296.668"/><polygon fill="#2C84FA" points="541.5,286.668,545.5,296.668,549.5,286.668,545.5,290.668" style="stroke:#2C84FA;stroke-width:1.0;"/><line style="stroke:#2C84FA;stroke-width:1.0;" x1="545.5" x2="545.5" y1="331.7617" y2="378.7617"/><line style="stroke:#2C84FA;stroke-width:1.0;" x1="545.5" x2="424.25" y1="378.7617" y2="378.7617"/><line style="stroke:#2C84FA;stroke-width:1.0;" x1="424.25" x2="424.25" y1="378.7617" y2="393.7617"/><polygon fill="#2C84FA" points="420.25,383.7617,424.25,393.7617,428.25,383.7617,424.25,387.7617" style="stroke:#2C84FA;stroke-width:1.0;"/><line style="stroke:#2C84FA;stroke-width:1.0;" x1="424.25" x2="424.25" y1="235.1914" y2="258.9961"/><polygon fill="#2C84FA" points="420.25,248.9961,424.25,258.9961,428.25,248.9961,424.25,252.9961" style="stroke:#2C84FA;stroke-width:1.0;"/><line style="stroke:#2C84FA;stroke-width:1.0;" x1="424.25" x2="424.25" y1="171.375" y2="200.0977"/><polygon fill="#2C84FA" points="420.25,190.0977,424.25,200.0977,428.25,190.0977,424.25,194.0977" style="stroke:#2C84FA;stroke-width:1.0;"/><line style="stroke:#2C84FA;stroke-width:1.0;" x1="500.25" x2="668" y1="157.5391" y2="157.5391"/><polygon fill="#2C84FA" points="664,277.1094,668,287.1094,672,277.1094,668,281.1094" style="stroke:#2C84FA;stroke-width:1.0;"/><line style="stroke:#2C84FA;stroke-width:1.0;" x1="668" x2="668" y1="157.5391" y2="405.7617"/><line style="stroke:#2C84FA;stroke-width:1.0;" x1="668" x2="436.25" y1="405.7617" y2="405.7617"/><polygon fill="#2C84FA" points="446.25,401.7617,436.25,405.7617,446.25,409.7617,442.25,405.7617" style="stroke:#2C84FA;stroke-width:1.0;"/><line style="stroke:#2C84FA;stroke-width:1.0;" x1="424.25" x2="424.25" y1="123.7031" y2="143.7031"/><polygon fill="#2C84FA" points="420.25,133.7031,424.25,143.7031,428.25,133.7031,424.25,137.7031" style="stroke:#2C84FA;stroke-width:1.0;"/><line style="stroke:#2C84FA;stroke-width:1.0;" x1="193" x2="139" y1="557.6211" y2="557.6211"/><line style="stroke:#2C84FA;stroke-width:1.0;" x1="139" x2="139" y1="557.6211" y2="579.6211"/><polygon fill="#2C84FA" points="135,569.6211,139,579.6211,143,569.6211,139,573.6211" style="stroke:#2C84FA;stroke-width:1.0;"/><line style="stroke:#2C84FA;stroke-width:1.0;" x1="324" x2="378" y1="557.6211" y2="557.6211"/><line style="stroke:#2C84FA;stroke-width:1.0;" x1="378" x2="378" y1="557.6211" y2="579.6211"/><polygon fill="#2C84FA" points="374,569.6211,378,579.6211,382,569.6211,378,573.6211" style="stroke:#2C84FA;stroke-width:1.0;"/><line style="stroke:#2C84FA;stroke-width:1.0;" x1="139" x2="139" y1="614.7148" y2="647.8086"/><line style="stroke:#2C84FA;stroke-width:1.0;" x1="139" x2="246.5" y1="647.8086" y2="647.8086"/><polygon fill="#2C84FA" points="236.5,643.8086,246.5,647.8086,236.5,651.8086,240.5,647.8086" style="stroke:#2C84FA;stroke-width:1.0;"/><line style="stroke:#2C84FA;stroke-width:1.0;" x1="378" x2="378" y1="629.8086" y2="647.8086"/><line style="stroke:#2C84FA;stroke-width:1.0;" x1="378" x2="270.5" y1="647.8086" y2="647.8086"/><polygon fill="#2C84FA" points="280.5,643.8086,270.5,647.8086,280.5,651.8086,276.5,647.8086" style="stroke:#2C84FA;stroke-width:1.0;"/><line style="stroke:#2C84FA;stroke-width:1.0;" x1="258.5" x2="258.5" y1="514.332" y2="545.6211"/><polygon fill="#2C84FA" points="254.5,535.6211,258.5,545.6211,262.5,535.6211,258.5,539.6211" style="stroke:#2C84FA;stroke-width:1.0;"/><line style="stroke:#2C84FA;stroke-width:1.0;" x1="307.75" x2="258.5" y1="451.5977" y2="451.5977"/><line style="stroke:#2C84FA;stroke-width:1.0;" x1="258.5" x2="258.5" y1="451.5977" y2="479.2383"/><polygon fill="#2C84FA" points="254.5,469.2383,258.5,479.2383,262.5,469.2383,258.5,473.2383" style="stroke:#2C84FA;stroke-width:1.0;"/><line style="stroke:#2C84FA;stroke-width:1.0;" x1="540.75" x2="590" y1="451.5977" y2="451.5977"/><line style="stroke:#2C84FA;stroke-width:1.0;" x1="590" x2="590" y1="451.5977" y2="475.4336"/><polygon fill="#2C84FA" points="586,465.4336,590,475.4336,594,465.4336,590,469.4336" style="stroke:#2C84FA;stroke-width:1.0;"/><line style="stroke:#2C84FA;stroke-width:1.0;" x1="258.5" x2="258.5" y1="659.8086" y2="677.8086"/><line style="stroke:#2C84FA;stroke-width:1.0;" x1="258.5" x2="412.25" y1="677.8086" y2="677.8086"/><polygon fill="#2C84FA" points="402.25,673.8086,412.25,677.8086,402.25,681.8086,406.25,677.8086" style="stroke:#2C84FA;stroke-width:1.0;"/><line style="stroke:#2C84FA;stroke-width:1.0;" x1="590" x2="590" y1="525.6211" y2="677.8086"/><line style="stroke:#2C84FA;stroke-width:1.0;" x1="590" x2="436.25" y1="677.8086" y2="677.8086"/><polygon fill="#2C84FA" points="446.25,673.8086,436.25,677.8086,446.25,681.8086,442.25,677.8086" style="stroke:#2C84FA;stroke-width:1.0;"/><line style="stroke:#2C84FA;stroke-width:1.0;" x1="424.25" x2="424.25" y1="417.7617" y2="437.7617"/><polygon fill="#2C84FA" points="420.25,427.7617,424.25,437.7617,428.25,427.7617,424.25,431.7617" style="stroke:#2C84FA;stroke-width:1.0;"/><line style="stroke:#2C84FA;stroke-width:1.0;" x1="424.25" x2="424.25" y1="689.8086" y2="709.8086"/><polygon fill="#2C84FA" points="420.25,699.8086,424.25,709.8086,428.25,699.8086,424.25,703.8086" style="stroke:#2C84FA;stroke-width:1.0;"/><line style="stroke:#2C84FA;stroke-width:1.0;" x1="424.25" x2="424.25" y1="744.9023" y2="764.9023"/><polygon fill="#2C84FA" points="420.25,754.9023,424.25,764.9023,428.25,754.9023,424.25,758.9023" style="stroke:#2C84FA;stroke-width:1.0;"/><line style="stroke:#2C84FA;stroke-width:1.0;" x1="498.25" x2="488.25" y1="962.6992" y2="962.6992"/><line style="stroke:#2C84FA;stroke-width:1.0;" x1="488.25" x2="488.25" y1="962.6992" y2="984.6992"/><polygon fill="#2C84FA" points="484.25,974.6992,488.25,984.6992,492.25,974.6992,488.25,978.6992" style="stroke:#2C84FA;stroke-width:1.0;"/><line style="stroke:#2C84FA;stroke-width:1.0;" x1="602.25" x2="612.25" y1="962.6992" y2="962.6992"/><line style="stroke:#2C84FA;stroke-width:1.0;" x1="612.25" x2="612.25" y1="962.6992" y2="984.6992"/><polygon fill="#2C84FA" points="608.25,974.6992,612.25,984.6992,616.25,974.6992,612.25,978.6992" style="stroke:#2C84FA;stroke-width:1.0;"/><line style="stroke:#2C84FA;stroke-width:1.0;" x1="488.25" x2="488.25" y1="1019.793" y2="1037.793"/><line style="stroke:#2C84FA;stroke-width:1.0;" x1="488.25" x2="538.25" y1="1037.793" y2="1037.793"/><polygon fill="#2C84FA" points="528.25,1033.793,538.25,1037.793,528.25,1041.793,532.25,1037.793" style="stroke:#2C84FA;stroke-width:1.0;"/><line style="stroke:#2C84FA;stroke-width:1.0;" x1="612.25" x2="612.25" y1="1019.793" y2="1037.793"/><line style="stroke:#2C84FA;stroke-width:1.0;" x1="612.25" x2="562.25" y1="1037.793" y2="1037.793"/><polygon fill="#2C84FA" points="572.25,1033.793,562.25,1037.793,572.25,1041.793,568.25,1037.793" style="stroke:#2C84FA;stroke-width:1.0;"/><line style="stroke:#2C84FA;stroke-width:1.0;" x1="550.25" x2="550.25" y1="926.8945" y2="950.6992"/><polygon fill="#2C84FA" points="546.25,940.6992,550.25,950.6992,554.25,940.6992,550.25,944.6992" style="stroke:#2C84FA;stroke-width:1.0;"/><line style="stroke:#2C84FA;stroke-width:1.0;" x1="579.25" x2="550.25" y1="865.9961" y2="865.9961"/><line style="stroke:#2C84FA;stroke-width:1.0;" x1="550.25" x2="550.25" y1="865.9961" y2="891.8008"/><polygon fill="#2C84FA" points="546.25,881.8008,550.25,891.8008,554.25,881.8008,550.25,885.8008" style="stroke:#2C84FA;stroke-width:1.0;"/><line style="stroke:#2C84FA;stroke-width:1.0;" x1="701.25" x2="730.25" y1="865.9961" y2="865.9961"/><line style="stroke:#2C84FA;stroke-width:1.0;" x1="730.25" x2="730.25" y1="865.9961" y2="887.9961"/><polygon fill="#2C84FA" points="726.25,877.9961,730.25,887.9961,734.25,877.9961,730.25,881.9961" style="stroke:#2C84FA;stroke-width:1.0;"/><line style="stroke:#2C84FA;stroke-width:1.0;" x1="550.25" x2="550.25" y1="1049.793" y2="1067.793"/><line style="stroke:#2C84FA;stroke-width:1.0;" x1="550.25" x2="628.25" y1="1067.793" y2="1067.793"/><polygon fill="#2C84FA" points="618.25,1063.793,628.25,1067.793,618.25,1071.793,622.25,1067.793" style="stroke:#2C84FA;stroke-width:1.0;"/><line style="stroke:#2C84FA;stroke-width:1.0;" x1="730.25" x2="730.25" y1="923.0898" y2="1067.793"/><line style="stroke:#2C84FA;stroke-width:1.0;" x1="730.25" x2="652.25" y1="1067.793" y2="1067.793"/><polygon fill="#2C84FA" points="662.25,1063.793,652.25,1067.793,662.25,1071.793,658.25,1067.793" style="stroke:#2C84FA;stroke-width:1.0;"/><line style="stroke:#2C84FA;stroke-width:1.0;" x1="368.25" x2="208.25" y1="831.9961" y2="831.9961"/><line style="stroke:#2C84FA;stroke-width:1.0;" x1="208.25" x2="208.25" y1="831.9961" y2="853.9961"/><polygon fill="#2C84FA" points="204.25,843.9961,208.25,853.9961,212.25,843.9961,208.25,847.9961" style="stroke:#2C84FA;stroke-width:1.0;"/><line style="stroke:#2C84FA;stroke-width:1.0;" x1="480.25" x2="640.25" y1="831.9961" y2="831.9961"/><line style="stroke:#2C84FA;stroke-width:1.0;" x1="640.25" x2="640.25" y1="831.9961" y2="853.9961"/><polygon fill="#2C84FA" points="636.25,843.9961,640.25,853.9961,644.25,843.9961,640.25,847.9961" style="stroke:#2C84FA;stroke-width:1.0;"/><line style="stroke:#2C84FA;stroke-width:1.0;" x1="208.25" x2="208.25" y1="889.0898" y2="1097.793"/><line style="stroke:#2C84FA;stroke-width:1.0;" x1="208.25" x2="412.25" y1="1097.793" y2="1097.793"/><polygon fill="#2C84FA" points="402.25,1093.793,412.25,1097.793,402.25,1101.793,406.25,1097.793" style="stroke:#2C84FA;stroke-width:1.0;"/><line style="stroke:#2C84FA;stroke-width:1.0;" x1="640.25" x2="640.25" y1="1079.793" y2="1097.793"/><line style="stroke:#2C84FA;stroke-width:1.0;" x1="640.25" x2="436.25" y1="1097.793" y2="1097.793"/><polygon fill="#2C84FA" points="446.25,1093.793,436.25,1097.793,446.25,1101.793,442.25,1097.793" style="stroke:#2C84FA;stroke-width:1.0;"/><line style="stroke:#2C84FA;stroke-width:1.0;" x1="424.25" x2="424.25" y1="799.9961" y2="819.9961"/><polygon fill="#2C84FA" points="420.25,809.9961,424.25,819.9961,428.25,809.9961,424.25,813.9961" style="stroke:#2C84FA;stroke-width:1.0;"/><line style="stroke:#2C84FA;stroke-width:1.0;" x1="424.25" x2="424.25" y1="1109.793" y2="1129.793"/><polygon fill="#2C84FA" points="420.25,1119.793,424.25,1129.793,428.25,1119.793,424.25,1123.793" style="stroke:#2C84FA;stroke-width:1.0;"/><!--MD5=[5ab75a6b3038013e52767fe8088d785a]
@startuml "Combattimento fisico"
title "Combattimento fisico"
skinparam defaultFontName Oxanium
skinparam activity {
  StartColor #0fff50
  BarColor #2c84fa
  EndColor #e949f5
  BorderColor #2c84fa
  ArrowColor #2c84fa
  FontName Oxanium
}
start
:Inizia del round;
if (Il giocatore vuole 
ritirarsi dal combattimento?) then (<color:#f2f230> sì)
:Chiedi una prova di BIO;
 note left
   Attivazione 
   cybermodifica
 endnote
if (Prova superata e il giocatore
ha un posto sicuro dove rifugiarsi?) then (<color:#f2f230> sì)
:Il giocatore abbandona il combattimento;
stop
else (<color:#f2f230> no)
:Il giocatore continua a combattere;
endif
endif
if (il personaggio può essere colto di sorpresa
    e vuole agire prima degli avversari?) then (<color:#f2f230> sì)
  :Chiedi una prova di BIO;
  note left
   Attivazione 
   cybermodifica
  endnote
  if (Prova di BIO passata?) then (<color:#f2f230> sì)
    :Il personaggio agisce prima degli avversari;
  else (<color:#f2f230> no)
    :Tutte le azioni del round
     avvengono simultaneamente;
  endif
else (<color:#f2f230> no)
    :Tutte le azioni del round
     avvengono simultaneamente;
endif
:Il personaggio può muoversi;
:Un personaggio può eseguire un attacco o un'altra azione;
if (Attacco o azione?) then (<color:#f2f230> attacco)
#f2f230 :Salta l'algoritmo di attacco;
else (<color:#f2f230> azione)
  if (l'azione è rischiosa?) then (<color:#f2f230> sì)
    :Richiedi un tiro di salvezza adeguato;
    note left
   Attivazione 
   cybermodifica
    endnote
    if (Prova superata?) then (<color:#f2f230> sì)
    #0fff50 :**SUCCESSO**;
    else (<color:#f2f230> no)
    #ff54ff:**FALLIMENTO**;
    endif
  else (<color:#f2f230> no)
    #0fff50 :**SUCCESSO**;
  endif 
endif
end
@enduml

PlantUML version 1.2022.7(Mon Aug 22 19:01:30 CEST 2022)
(GPL source distribution)
Java Runtime: Java(TM) SE Runtime Environment
JVM: Java HotSpot(TM) 64-Bit Server VM
Default Encoding: Cp1252
Language: it
Country: IT
--></g></svg>